<svg width="25" height="24" viewBox="0 0 25 24" fill="none" xmlns="http://www.w3.org/2000/svg">
<g id="Frame">
<g id="Layer_1">
<g id="Group">
<path id="Vector" d="M7.73433 17.0284L6.06177 17.41V6.57812L7.73433 6.96045V17.0284Z" fill="#F58536"/>
<path id="Vector_2" d="M9.82111 17.6678L7.73431 18.2608V5.74219L9.82111 6.33451V17.6678Z" fill="#F58536"/>
<path id="Vector_3" d="M12.4981 18.3247L9.82117 19.3044V4.69873L12.4981 5.67793V18.3247Z" fill="#F58536"/>
<path id="Vector_4" d="M19.6559 17.0611L12.4981 20.64V3.35999L19.6559 6.93887V17.0611Z" fill="#F58536"/>
<path id="Vector_5" d="M11.0713 4.07351L12.4981 3.35999V20.64L11.0713 19.9267V4.07351Z" fill="#9D5025"/>
<path id="Vector_6" d="M8.71667 5.25073L9.82116 4.69849V19.3015L8.71667 18.7493V5.25073Z" fill="#9D5025"/>
<path id="Vector_7" d="M6.85449 6.18186L7.73433 5.74194V18.2579L6.85449 17.8178V6.18186Z" fill="#9D5025"/>
<path id="Vector_8" d="M6.06178 6.57812L5.34418 6.93692V17.0632L6.06178 17.4218V6.57812Z" fill="#9D5025"/>
</g>
</g>
</g>
</svg>
