<svg width="24" height="24" viewBox="0 0 24 24" fill="none" xmlns="http://www.w3.org/2000/svg">
<path d="M12.0651 7.80359V8.60825H8.41349L8.4081 8.60301L8.40286 8.60825H1.25555C1.2521 8.60825 1.24879 8.60962 1.24635 8.61206C1.2439 8.6145 1.24253 8.61781 1.24253 8.62126V12.1753H0.0937195V12.2534H1.24253V15.7629C1.24253 15.7663 1.2439 15.7696 1.24635 15.7721C1.24879 15.7745 1.2521 15.7759 1.25555 15.7759H4.78749V17.3771H4.86561V15.7759H8.36904V15.789H8.38974L8.40795 15.8072L8.42682 15.789H8.44716V15.7759H12.065V16.3471H12.1431V15.7759H15.7763V15.789H15.7966L15.8155 15.8072L15.8337 15.789H15.8544V15.7759H19.3558V16.555H19.4339V15.7759H22.9681C22.9715 15.7759 22.9748 15.7745 22.9773 15.7721C22.9797 15.7696 22.9811 15.7663 22.9811 15.7629V12.2534H23.9062V12.1753H22.9811V8.62126C22.9811 8.61781 22.9797 8.6145 22.9773 8.61206C22.9748 8.60962 22.9715 8.60825 22.9681 8.60825H19.4339V8.6058H19.3558V8.60825H15.8208L15.8156 8.60301L15.8102 8.60825H12.1433V7.80359H12.0651ZM1.28681 8.63429H4.78743V12.1422L1.28681 8.63429ZM4.86562 8.63429H8.36905V8.64187L4.86562 12.1399V8.63429ZM8.44724 8.63429H12.0651V12.1417L8.44724 8.64085V8.63429ZM12.1432 8.63429H15.7764V8.64095L12.1432 12.1566V8.63429ZM15.8544 8.63429H19.3558V12.1377L15.8544 8.64179V8.63429ZM19.4338 8.63429H22.9367L19.4338 12.1445V8.63429ZM1.26843 8.65275L4.78349 12.1753H1.26843V8.65275ZM22.9547 8.65275V12.1753H19.4396L22.9547 8.65275ZM8.44687 8.67716L12.0619 12.1753H8.44687V8.67716ZM15.7759 8.67716V12.1753H12.1609L15.7759 8.67716ZM8.36868 8.67868V12.1752H4.86674L8.36868 8.67868ZM15.8541 8.67868L19.3554 12.1746V12.1753H15.8541V8.67868ZM1.26824 12.2534H4.75162L1.26824 15.7315V12.2534ZM4.89806 12.2534H8.36868V15.7313L4.89806 12.2534ZM8.44687 12.2534H12.0427L8.44687 15.733V12.2534ZM12.1802 12.2534H15.7761V15.733L12.1802 12.2534ZM15.8542 12.2534H19.3249L15.8542 15.7313V12.2534ZM19.4336 12.2534H19.4344L22.9361 15.7499H19.4334L19.4336 12.2534ZM19.4713 12.2534H22.9547V15.7315L19.4713 12.2534ZM12.1429 12.2536L15.756 15.7499H12.1429V12.2536ZM4.78724 12.2547V15.7497H1.2868L4.78724 12.2547ZM4.86536 12.2573L8.35061 15.7497H4.86536V12.2573ZM19.3555 12.2595V15.7498H15.8725L19.3555 12.2595ZM12.0648 12.2684V15.7497H8.46704L12.0648 12.2684Z" fill="#CECECE"/>
<path d="M12.1042 9.65472C12.0366 9.65472 11.9689 9.68049 11.9174 9.73203C11.818 9.83139 11.8148 9.99046 11.907 10.0941L5.56441 13.6994L5.57117 13.7108C5.97561 14.3938 6.46952 15.0202 7.08148 15.5714L7.09125 15.5802L7.09994 15.5704L11.9273 10.1147C12.0309 10.2085 12.1912 10.2057 12.2911 10.1058C12.3942 10.0027 12.3942 9.83524 12.2911 9.73217C12.2396 9.68063 12.1719 9.65472 12.1042 9.65472ZM12.1042 9.68061C12.1652 9.68061 12.2261 9.70388 12.2726 9.75044C12.3657 9.84356 12.3657 9.99415 12.2726 10.0873C12.1795 10.1804 12.0289 10.1804 11.9358 10.0873C11.8427 9.99414 11.8427 9.84355 11.9358 9.75044C11.9824 9.70388 12.0433 9.68061 12.1042 9.68061ZM21.1678 9.76056V9.7866H21.4584V15.5824H21.1678V15.6084H21.7751V15.5824H21.4845V9.7866H21.7751V9.76056H21.1678ZM3.60449 9.85673L3.59147 9.85729H3.59091C3.5865 9.85748 3.58209 9.8577 3.57769 9.85795L3.56543 9.85866V10.6301L3.57982 10.6286C3.58368 10.6282 3.58759 10.6279 3.59147 10.6279C3.65845 10.6279 3.71251 10.6819 3.71251 10.7489C3.71251 10.8159 3.6585 10.8699 3.59152 10.87C3.58759 10.87 3.58363 10.8697 3.57972 10.8693L3.56543 10.8679V11.6395L3.57789 11.6401C3.58229 11.6403 3.58671 11.6404 3.59111 11.6405H3.59147C4.08376 11.6405 4.48311 11.2412 4.48311 10.7489C4.48312 10.2611 4.09064 9.86575 3.60451 9.8586L3.60449 9.85673ZM3.59168 9.88333C4.06978 9.88343 4.45706 10.2708 4.45706 10.7489C4.45707 11.2271 4.06975 11.6145 3.59158 11.6145C3.59156 11.6145 3.59161 11.6145 3.59158 11.6145L3.59148 10.896C3.67256 10.896 3.73856 10.83 3.73856 10.7489C3.73856 10.6678 3.67255 10.6018 3.59148 10.6018V9.88338C3.59156 9.88337 3.5916 9.88333 3.59168 9.88333ZM14.8379 9.91923V9.91989C14.5788 9.92686 14.3705 10.1389 14.3705 10.3996C14.3705 10.6604 14.5788 10.8724 14.8379 10.8794V13.4286C14.8376 13.4286 14.8372 13.4286 14.8368 13.4286C14.5716 13.4286 14.3564 13.6438 14.3564 13.909C14.3564 14.1741 14.5716 14.3894 14.8368 14.3894C15.102 14.3894 15.3173 14.1741 15.3173 13.909C15.3173 13.653 15.1164 13.4441 14.864 13.4299V10.8794C15.1231 10.8724 15.3314 10.6604 15.3314 10.3996C15.3314 10.1389 15.1231 9.92687 14.864 9.91989V9.91924L14.8379 9.91923ZM14.8379 9.94593V10.8533C14.5929 10.8464 14.3965 10.6463 14.3965 10.3996C14.3965 10.1529 14.5929 9.95287 14.8379 9.94593ZM14.864 9.94593C15.109 9.95288 15.3053 10.1529 15.3053 10.3996C15.3053 10.6463 15.109 10.8464 14.864 10.8533V9.94593ZM11.861 10.1502L7.08946 15.5427C6.48759 14.9986 6.00048 14.3815 5.60068 13.7085L11.861 10.1502ZM6.03234 10.3102V10.9175H6.05838V10.6269H7.28928V10.9175H7.31532V10.3102H7.28928V10.6009H6.05838V10.3102H6.03234ZM10.7 12.6924V12.7185H10.9906V14.6064H10.7V14.6324H11.3073V14.6064H11.0167V12.7185H11.3073V12.6924H10.7ZM14.8368 13.4545C14.8372 13.4545 14.8375 13.4546 14.8379 13.4546V14.3632C14.8375 14.3632 14.8372 14.3633 14.8368 14.3633C14.5857 14.3633 14.3824 14.16 14.3824 13.9089C14.3824 13.6578 14.5857 13.4545 14.8368 13.4545ZM14.8639 13.4559C15.1023 13.47 15.2912 13.6669 15.2912 13.9089C15.2912 14.1508 15.1023 14.3478 14.8639 14.3619V13.4559ZM17.347 13.5376V14.1448H17.373V13.8542H19.6273V14.1448H19.6534V13.5376H19.6273V13.8282H17.373V13.5376H17.347Z" fill="#6C6C6C"/>
<path d="M15.2001 8.45849C15.1814 8.45832 15.1629 8.45841 15.1444 8.4587C14.8603 8.46319 14.2516 8.46206 13.7064 8.70882C13.1612 8.95557 12.6819 9.46698 12.6819 10.4427C12.6819 10.8552 12.8196 11.2117 13.0356 11.5171H8.68358V9.54629H11.5407V8.54304H7.53477V9.54629H7.53507V11.5171H7.53477V12.5204H7.53507V14.8559L6.86386 14.8519L5.935 14.8562L4.48094 12.5972C4.82176 12.4566 5.1553 12.2544 5.41203 11.9712C5.69125 11.6631 5.87823 11.2605 5.87823 10.7624V10.6191C5.87823 9.89022 5.60026 9.36734 5.14696 9.03396C4.69366 8.70059 4.07358 8.55325 3.38434 8.53754H1.17184V9.55214H1.1775V11.9349H1.17185V12.882H1.1775V15.8546H2.32605V12.879L3.48112 12.8757L5.06691 15.4556L5.06914 15.4586C5.20342 15.6364 5.48254 16.0312 5.93361 16.3156L5.9718 16.3397L6.88337 15.859L7.61342 15.8546H11.5404V14.8119H8.68349V12.5203H14.3327C14.3347 12.5213 14.3363 12.522 14.3385 12.523C14.6885 12.6831 15.1133 12.8278 15.4439 13.0365C15.7746 13.245 16.0059 13.5031 16.0059 13.9131C16.0059 14.3543 15.8068 14.5854 15.5261 14.7256C15.2454 14.8659 14.8786 14.9006 14.5766 14.9006H14.576C13.9972 14.9042 13.3164 14.6582 12.735 14.4641L12.6322 14.4298V15.5329L12.6779 15.5538C13.2485 15.8139 14.0938 15.9154 14.5782 15.897C14.9257 15.8968 15.5603 15.8288 16.1204 15.5484C16.6813 15.2677 17.1675 14.7591 17.1675 13.9131C17.1675 13.2583 16.9211 12.7889 16.5762 12.4529C16.2314 12.1169 15.792 11.9108 15.3997 11.7579L15.3994 11.7578C15.2506 11.7004 14.9683 11.5877 14.6877 11.4349C14.4075 11.2824 14.1305 11.0874 13.992 10.8829C13.9059 10.7431 13.8527 10.5873 13.8434 10.4401C13.8442 9.99399 14.0522 9.75339 14.3215 9.61145C14.5913 9.46924 14.9274 9.43908 15.1468 9.45491C15.5885 9.48679 16.3493 9.73594 16.5926 9.83985L16.6701 9.87291L16.7827 9.54199H19.8285V15.8546H20.977V9.54199H23.0416V8.54753H20.977V8.5431H19.8285V8.54753H15.8597C15.6393 8.49431 15.4177 8.46033 15.1999 8.45837L15.2001 8.45849ZM15.1987 8.61472C15.4049 8.61658 15.6188 8.64895 15.8342 8.70164L15.8434 8.70388H19.9851V8.69945H20.8212V8.70388H22.8857V9.38587H20.8212V15.6984H19.9851V9.38587H16.6712L16.5757 9.66656C16.2687 9.54478 15.6092 9.33174 15.1584 9.29921C14.9146 9.2816 14.557 9.31101 14.249 9.47334C13.9409 9.63568 13.6873 9.94406 13.6873 10.4427V10.4451L13.6875 10.4475C13.6983 10.6263 13.7611 10.8063 13.8604 10.9669L13.8612 10.9682L13.8621 10.9695C14.0275 11.2147 14.3225 11.4139 14.6133 11.5723C14.9042 11.7306 15.1925 11.8454 15.3434 11.9037C15.728 12.0535 16.1476 12.2531 16.4675 12.5649C16.7875 12.8767 17.0115 13.297 17.0115 13.9132C17.0115 14.7006 16.5779 15.145 16.0508 15.4088C15.5236 15.6727 14.9029 15.741 14.5769 15.741H14.5753L14.5739 15.7411C14.1319 15.7581 13.3213 15.6582 12.7887 15.4299V14.6469C13.3454 14.8347 13.9898 15.0606 14.5774 15.0569C14.8906 15.0569 15.2772 15.0249 15.5962 14.8655C15.9154 14.706 16.1624 14.4043 16.1624 13.9132C16.1624 13.4426 15.8813 13.1275 15.5276 12.9044C15.1739 12.6813 14.7422 12.5358 14.4038 12.3811C14.3979 12.3784 14.391 12.3751 14.3831 12.3714L14.3675 12.3642H8.52747V14.9682H11.3844V15.6984H7.61304L6.84432 15.703L5.98066 16.1585C5.58374 15.8966 5.33049 15.5454 5.19609 15.3672L3.5684 12.7194L2.16993 12.7232V15.6985H1.33383V12.7258H1.32818V12.0912H1.33383V9.39588H1.32818V8.69375H3.38093C4.04988 8.70899 4.63861 8.85392 5.05454 9.1598C5.47047 9.46569 5.72213 9.92908 5.72213 10.6191V10.7624C5.72213 11.2218 5.55384 11.5822 5.29641 11.8662C5.039 12.1503 4.69049 12.3557 4.33649 12.4896L4.24653 12.5237C4.7833 13.3519 5.31593 14.1828 5.8501 15.0127L6.8639 15.008L7.69145 15.013V12.3642H7.69115V11.6733H7.69145V9.38995H7.69115V8.69916H11.3847V9.38995H8.52758V11.6733H13.3512L13.2464 11.5456C12.9935 11.2375 12.8383 10.8748 12.8383 10.4427C12.8383 9.51665 13.2661 9.07958 13.7709 8.8511C14.2757 8.62261 14.8598 8.61946 15.147 8.61492C15.1643 8.61464 15.1814 8.61457 15.1987 8.61472ZM2.16984 9.39594V12.0913H3.11791C3.51658 12.0913 3.9357 12.0328 4.26408 11.835C4.59247 11.6372 4.82163 11.2912 4.82163 10.7625V10.6192C4.82163 10.084 4.52094 9.76543 4.1961 9.59712C3.87125 9.42878 3.52528 9.39602 3.38259 9.39602L2.16984 9.39594ZM2.32607 9.55218H3.38258C3.49889 9.55218 3.83337 9.58499 4.12423 9.73572C4.4151 9.88644 4.6654 10.1405 4.6654 10.6192V10.7624C4.6654 11.2477 4.4725 11.527 4.18347 11.7011C3.89443 11.8751 3.5008 11.9349 3.1179 11.9349H2.32605L2.32607 9.55218Z" fill="#7F2D2D"/>
<path d="M2.26386 5.32782C2.25696 5.32782 2.25034 5.33056 2.24545 5.33545C2.24057 5.34033 2.23783 5.34695 2.23783 5.35386V5.86843C2.23783 5.89608 2.23955 5.93099 2.24286 5.97361C2.24427 5.99159 2.24568 6.00161 2.24708 6.01643C2.22658 5.99311 2.20801 5.96835 2.18254 5.94874C2.14137 5.91624 2.09267 5.89066 2.03694 5.87189C1.98024 5.8528 1.91506 5.84356 1.84145 5.84356C1.66651 5.84356 1.52231 5.90354 1.41573 6.02217C1.30827 6.14099 1.25635 6.31494 1.25635 6.54005C1.25635 6.76278 1.30701 6.93483 1.41202 7.05213C1.412 7.05211 1.41204 7.05215 1.41202 7.05213C1.51712 7.16856 1.66139 7.22718 1.83779 7.22718C1.913 7.22718 1.97896 7.21797 2.03574 7.19885C2.0358 7.19884 2.03587 7.19882 2.03594 7.1988C2.09246 7.17924 2.14157 7.15289 2.18277 7.11957C2.21145 7.09681 2.2323 7.06953 2.25417 7.04292L2.27762 7.18207C2.27864 7.18814 2.28178 7.19365 2.28648 7.19763C2.29119 7.20161 2.29714 7.20379 2.3033 7.20379H2.46833C2.47524 7.20379 2.48186 7.20104 2.48674 7.19616C2.49163 7.19128 2.49437 7.18465 2.49437 7.17775V5.35386C2.49437 5.34695 2.49163 5.34033 2.48674 5.33545C2.48186 5.33057 2.47524 5.32782 2.46833 5.32782L2.26386 5.32782ZM3.03537 5.38646C2.99489 5.38646 2.95806 5.39935 2.92948 5.42465C2.89956 5.4511 2.88621 5.49193 2.88621 5.54025C2.88621 5.58787 2.89965 5.62848 2.92913 5.65554C2.92923 5.65564 2.92933 5.65574 2.92943 5.65584C2.95801 5.68117 2.99487 5.69409 3.03537 5.69409C3.07437 5.69409 3.11028 5.681 3.13861 5.656C3.16977 5.62921 3.18458 5.58814 3.18458 5.54024C3.18458 5.49173 3.16985 5.4505 3.13835 5.42434C3.11006 5.39947 3.07427 5.38646 3.03537 5.38646ZM7.11706 5.81722C7.00593 5.81722 6.90985 5.83486 6.8293 5.87113C6.74891 5.90733 6.68597 5.96106 6.64296 6.03118C6.59982 6.10074 6.57873 6.18449 6.57873 6.28048C6.57873 6.37156 6.60187 6.45338 6.6483 6.52342C6.64837 6.52352 6.64844 6.52362 6.64851 6.52372C6.68653 6.57935 6.73689 6.61907 6.7937 6.64903C6.75341 6.67601 6.71876 6.70398 6.69504 6.73452C6.69501 6.73454 6.69507 6.73451 6.69504 6.73452C6.66453 6.77413 6.64891 6.82167 6.64891 6.87357C6.64891 6.91945 6.6634 6.96194 6.69143 6.99751C6.69151 6.99761 6.6916 6.99771 6.69169 6.99781C6.7065 7.01599 6.72327 7.03157 6.74138 7.0451C6.66946 7.06744 6.60615 7.09892 6.56002 7.14748C6.55997 7.14753 6.55991 7.14758 6.55986 7.14763C6.50232 7.20914 6.47279 7.28547 6.47279 7.37171C6.47279 7.49231 6.52659 7.59073 6.62857 7.65718C6.62854 7.65716 6.6286 7.6572 6.62857 7.65718C6.73076 7.72446 6.87268 7.75641 7.05302 7.75641C7.28576 7.75641 7.46612 7.71853 7.59388 7.63882C7.7216 7.55915 7.78836 7.43932 7.78836 7.28968C7.78836 7.17112 7.74495 7.07552 7.65979 7.01216C7.57552 6.94888 7.45706 6.91904 7.30668 6.91904H7.06897C7.02769 6.91904 6.99294 6.91597 6.96496 6.91024C6.93789 6.90393 6.91902 6.89447 6.90704 6.88375C6.89686 6.87398 6.89183 6.86258 6.89183 6.84311C6.89183 6.81491 6.89985 6.79189 6.9168 6.77049C6.93421 6.74952 6.96158 6.72929 6.99635 6.71032C7.03301 6.71561 7.06926 6.71912 7.10472 6.71912C7.26808 6.71912 7.39996 6.68037 7.49682 6.60062C7.49679 6.60064 7.49686 6.60061 7.49682 6.60062C7.5935 6.52021 7.64304 6.40895 7.64304 6.27462C7.64304 6.21955 7.63438 6.16858 7.6167 6.1223C7.605 6.09169 7.58812 6.06782 7.57215 6.04276L7.7826 6.01794C7.78892 6.0172 7.79476 6.01415 7.799 6.00939C7.80323 6.00463 7.80558 5.99848 7.80558 5.99211V5.86671C7.80558 5.8598 7.80284 5.85318 7.79796 5.84829C7.79307 5.84341 7.78645 5.84067 7.77954 5.84067H7.31893C7.30219 5.83613 7.28382 5.83226 7.26279 5.82927C7.2397 5.82522 7.21547 5.82244 7.19016 5.82083C7.16583 5.81847 7.14143 5.81722 7.11706 5.81722ZM4.13243 5.8219C4.0433 5.8219 3.9581 5.83273 3.87698 5.85445C3.79683 5.8759 3.72548 5.90184 3.66293 5.93241C3.65695 5.93535 3.65232 5.94046 3.64999 5.9467C3.64766 5.95295 3.64782 5.95985 3.65042 5.96598L3.71318 6.11367C3.71454 6.11688 3.71653 6.11979 3.71904 6.12221C3.72155 6.12464 3.72452 6.12654 3.72777 6.12779C3.73102 6.12905 3.7345 6.12964 3.73798 6.12953C3.74147 6.12942 3.7449 6.12861 3.74807 6.12715C3.8044 6.1011 3.86402 6.07846 3.92698 6.05925C3.98846 6.0405 4.05315 6.03108 4.12136 6.03108C4.20825 6.03108 4.27168 6.05196 4.3159 6.09129C4.35795 6.1287 4.38226 6.19805 4.38226 6.3051V6.3586L4.17451 6.36699C3.95369 6.37335 3.78699 6.41069 3.67383 6.48361C3.56091 6.55636 3.50178 6.66552 3.50178 6.80091C3.50178 6.88977 3.52071 6.96552 3.56017 7.0261C3.56022 7.02619 3.56027 7.02628 3.56032 7.02636C3.59997 7.08591 3.65454 7.1309 3.72195 7.16007C3.72191 7.16005 3.72198 7.16008 3.72195 7.16007C3.78969 7.189 3.86648 7.2032 3.95148 7.2032C4.03121 7.2032 4.09917 7.19533 4.15581 7.17874C4.15588 7.17872 4.15595 7.1787 4.15602 7.17868C4.21285 7.16147 4.26342 7.13623 4.30712 7.10296C4.3072 7.10289 4.30729 7.10282 4.30738 7.10275C4.34047 7.07692 4.37129 7.04277 4.40197 7.00811L4.43335 7.15905C4.43457 7.16491 4.43776 7.17017 4.44241 7.17395C4.44705 7.17773 4.45285 7.1798 4.45883 7.1798H4.60784C4.61475 7.1798 4.62137 7.17706 4.62625 7.17217C4.63114 7.16729 4.63388 7.16067 4.63388 7.15376V6.2805C4.63388 6.1252 4.59319 6.00664 4.50811 5.93162C4.42345 5.85698 4.29706 5.8219 4.13243 5.8219ZM5.70254 5.84357C5.63947 5.84357 5.57908 5.85216 5.52159 5.8693C5.46407 5.88567 5.41168 5.91031 5.36495 5.94325C5.33095 5.96666 5.30262 5.99584 5.27717 6.02757L5.25413 5.88883C5.25312 5.88275 5.24998 5.87722 5.24528 5.87324C5.24057 5.86925 5.23461 5.86706 5.22845 5.86706H5.06341C5.05651 5.86706 5.04989 5.86981 5.045 5.87469C5.04012 5.87957 5.03738 5.8862 5.03738 5.8931V7.17776C5.03738 7.18466 5.04012 7.19129 5.045 7.19617C5.04989 7.20105 5.05651 7.2038 5.06341 7.2038H5.26786C5.27477 7.2038 5.28139 7.20105 5.28627 7.19617C5.29116 7.19129 5.2939 7.18466 5.2939 7.17776V6.50491C5.2939 6.35519 5.32378 6.24431 5.37975 6.17017C5.43432 6.09787 5.52947 6.05976 5.67422 6.05976C5.77577 6.05976 5.84595 6.08479 5.89061 6.13142C5.89066 6.13147 5.89072 6.13152 5.89077 6.13157C5.9364 6.17845 5.961 6.25086 5.961 6.35372V7.17777C5.961 7.18467 5.96375 7.1913 5.96863 7.19618C5.97351 7.20106 5.98013 7.20381 5.98704 7.20381H6.189C6.1959 7.20381 6.20252 7.20106 6.20741 7.19618C6.21229 7.1913 6.21503 7.18467 6.21503 7.17777V6.34086C6.21503 6.17173 6.17256 6.04362 6.08342 5.96294C5.9951 5.88227 5.86666 5.84357 5.70254 5.84357ZM8.61423 5.84601C8.48181 5.84601 8.36583 5.87299 8.26778 5.92783C8.17058 5.98189 8.09516 6.06166 8.04299 6.16504C7.99066 6.26795 7.96508 6.39171 7.96508 6.53543C7.96508 6.64335 7.98016 6.74055 8.0109 6.82669C8.01091 6.82676 8.01093 6.82683 8.01095 6.8269C8.04238 6.91261 8.08654 6.98584 8.14338 7.04569C8.14335 7.04566 8.14341 7.04572 8.14338 7.04569C8.20086 7.1053 8.2691 7.15138 8.34701 7.18316C8.34711 7.18321 8.34721 7.18326 8.34731 7.18331C8.42614 7.2143 8.51246 7.22964 8.60561 7.22964C8.70515 7.22964 8.79508 7.21436 8.8749 7.18331C8.87487 7.18333 8.87494 7.1833 8.8749 7.18331C8.95531 7.15156 9.0245 7.10552 9.08133 7.04569C9.13826 6.98576 9.18169 6.91237 9.21148 6.8265C9.24133 6.74043 9.25597 6.6433 9.25597 6.53545C9.25597 6.39237 9.2295 6.26882 9.17542 6.16587C9.12245 6.0627 9.04674 5.98268 8.94971 5.92791C8.85343 5.8731 8.74105 5.84601 8.61423 5.84601ZM2.93073 5.86706C2.92382 5.86706 2.9172 5.86981 2.91232 5.87469C2.90743 5.87957 2.90469 5.88619 2.90469 5.8931V7.3852C2.90469 7.45952 2.88795 7.50487 2.86202 7.5272C2.83281 7.55235 2.79473 7.56544 2.74352 7.56544C2.71192 7.56544 2.68387 7.56319 2.65946 7.55883C2.6592 7.55878 2.65894 7.55873 2.65869 7.55868C2.63369 7.55496 2.60909 7.54943 2.58489 7.542C2.581 7.5408 2.57688 7.54054 2.57287 7.54123C2.56886 7.54191 2.56507 7.54353 2.56179 7.54595C2.55852 7.54837 2.55586 7.55152 2.55402 7.55515C2.55219 7.55879 2.55123 7.5628 2.55122 7.56687V7.72513C2.55123 7.73057 2.55294 7.73586 2.5561 7.74027C2.55927 7.74469 2.56373 7.748 2.56887 7.74975C2.59342 7.75809 2.62174 7.76502 2.6538 7.77065C2.68715 7.7773 2.72516 7.78047 2.76818 7.78047C2.855 7.78047 2.92844 7.76512 2.98758 7.73271C3.04624 7.70056 3.09086 7.65294 3.1193 7.59209C3.14758 7.53235 3.1612 7.46157 3.1612 7.38052V5.8931C3.1612 5.8862 3.15846 5.87958 3.15358 5.87469C3.14869 5.86981 3.14207 5.86707 3.13516 5.86707L2.93073 5.86706ZM7.10973 6.01348C7.20311 6.01348 7.26925 6.03626 7.31326 6.07883C7.31331 6.07888 7.31336 6.07893 7.31341 6.07899C7.35716 6.12063 7.38044 6.18421 7.38044 6.27581C7.38044 6.36091 7.35787 6.42089 7.31463 6.46204C7.2716 6.503 7.2057 6.52521 7.11217 6.52521C7.02207 6.52521 6.95685 6.50324 6.91185 6.46179C6.86689 6.42038 6.8439 6.36179 6.8439 6.27932C6.8439 6.18854 6.86715 6.12436 6.91124 6.08101C6.95645 6.0366 7.02078 6.01348 7.10973 6.01348ZM1.86985 6.05742C2.01504 6.05742 2.10738 6.09808 2.15832 6.17678C2.15835 6.17683 2.15839 6.17689 2.15842 6.17694C2.21181 6.25825 2.24035 6.37867 2.24035 6.53894V6.57409C2.24035 6.72465 2.21078 6.83475 2.15588 6.90634C2.1021 6.97646 2.00966 7.01334 1.86987 7.01334C1.74941 7.01334 1.66529 6.97444 1.6078 6.89535C1.55069 6.81553 1.52032 6.69917 1.52032 6.5448C1.52032 6.38958 1.55093 6.27 1.60937 6.18437C1.60936 6.1844 1.60939 6.18433 1.60937 6.18437C1.66722 6.09888 1.75061 6.05742 1.86985 6.05742ZM8.60935 6.06215C8.70088 6.06215 8.7729 6.08156 8.82753 6.1186C8.88289 6.15614 8.92367 6.20903 8.9508 6.27987C8.95079 6.27983 8.95082 6.2799 8.9508 6.27987C8.97809 6.35035 8.9922 6.4355 8.9922 6.53542C8.9922 6.63615 8.9781 6.7225 8.95076 6.79464C8.92362 6.86623 8.88248 6.91987 8.82626 6.9582C8.8262 6.95823 8.82631 6.95816 8.82626 6.9582C8.77154 6.99601 8.70037 7.01577 8.61063 7.01577C8.52002 7.01577 8.44854 6.99608 8.39388 6.9583C8.33845 6.92 8.29761 6.8663 8.27044 6.79464C8.2431 6.72251 8.22905 6.63616 8.22905 6.53542C8.22905 6.38283 8.26075 6.26649 8.3212 6.18411C8.32122 6.18408 8.32127 6.18398 8.3213 6.18395C8.38169 6.10287 8.4745 6.06215 8.60935 6.06215ZM4.37973 6.54783V6.63917C4.37973 6.76052 4.34439 6.84607 4.2746 6.90394C4.20341 6.96296 4.11221 6.99289 3.99692 6.99289C3.92369 6.99289 3.86789 6.97641 3.8266 6.94539C3.78676 6.91546 3.76679 6.87117 3.76679 6.80324C3.76679 6.72594 3.79583 6.67118 3.85869 6.62916C3.91996 6.58819 4.03499 6.56117 4.20106 6.55501C4.20104 6.55501 4.20108 6.55501 4.20106 6.55501L4.37973 6.54783ZM7.00248 7.15278H7.23648C7.30425 7.15278 7.361 7.15749 7.40629 7.16641C7.40643 7.16643 7.40656 7.16644 7.4067 7.16646C7.45053 7.17437 7.4809 7.1896 7.50074 7.2103C7.51957 7.23071 7.53059 7.26226 7.53059 7.30957C7.53059 7.35929 7.51501 7.39951 7.48217 7.43494C7.48204 7.43507 7.4819 7.43521 7.48176 7.43535C7.45001 7.47106 7.39976 7.49998 7.32904 7.52018C7.32894 7.52021 7.32884 7.52025 7.32874 7.52028C7.25916 7.54112 7.1691 7.55202 7.05915 7.55202C6.94783 7.55202 6.86443 7.53365 6.80893 7.50055C6.80886 7.50051 6.80879 7.50048 6.80872 7.50045C6.75347 7.46819 6.72929 7.42657 6.72929 7.36471C6.72929 7.31637 6.74003 7.27831 6.76041 7.24814C6.78194 7.2175 6.81207 7.19429 6.85323 7.17791C6.89465 7.16142 6.94429 7.15278 7.00248 7.15278ZM10.4 16.7832C10.305 16.7832 10.2228 16.7997 10.1543 16.834C10.0854 16.8685 10.032 16.9232 9.99617 16.9956C9.96004 17.0678 9.94292 17.1593 9.94292 17.2698V17.3355L9.72332 17.3947C9.71778 17.3962 9.71289 17.3995 9.70941 17.404C9.70592 17.4086 9.70404 17.4142 9.70404 17.4199V17.5136C9.70404 17.5205 9.70679 17.5272 9.71167 17.532C9.71655 17.5369 9.72318 17.5397 9.73008 17.5397H9.94291V18.6459C9.94291 18.6528 9.94566 18.6594 9.95054 18.6643C9.95542 18.6692 9.96204 18.6719 9.96895 18.6719H10.1734C10.1803 18.6719 10.1869 18.6692 10.1918 18.6643C10.1967 18.6594 10.1994 18.6528 10.1994 18.6459V17.5397H10.5096C10.5165 17.5397 10.5231 17.5369 10.528 17.532C10.5329 17.5272 10.5356 17.5205 10.5356 17.5136V17.3613C10.5356 17.3544 10.5329 17.3477 10.528 17.3428C10.5231 17.338 10.5165 17.3352 10.5096 17.3352H10.1994V17.2675C10.1994 17.1683 10.2179 17.0989 10.2493 17.0584C10.2817 17.0168 10.3299 16.9958 10.4025 16.9958C10.4367 16.9958 10.47 16.9994 10.5026 17.0068C10.5028 17.0069 10.503 17.0069 10.5033 17.007C10.5378 17.0139 10.5686 17.0215 10.5955 17.0298C10.602 17.0318 10.6089 17.0312 10.615 17.0282C10.621 17.0251 10.6256 17.0198 10.6278 17.0134L10.6807 16.8599C10.6819 16.8566 10.6823 16.8532 10.6821 16.8497C10.6819 16.8463 10.681 16.8429 10.6795 16.8399C10.6779 16.8368 10.6758 16.834 10.6732 16.8318C10.6706 16.8295 10.6676 16.8278 10.6644 16.8267C10.6302 16.8153 10.5911 16.8053 10.5467 16.7965C10.502 16.7875 10.4531 16.7832 10.4 16.7832ZM21.8575 16.796C21.8506 16.796 21.844 16.7988 21.8391 16.8036C21.8342 16.8085 21.8315 16.8152 21.8315 16.8221V18.6459C21.8315 18.6528 21.8342 18.6594 21.8391 18.6643C21.844 18.6692 21.8506 18.6719 21.8575 18.6719H22.0608C22.0677 18.6719 22.0743 18.6692 22.0792 18.6643C22.0841 18.6594 22.0868 18.6528 22.0868 18.6459V18.1924L22.221 18.0752L22.6806 18.662C22.683 18.6651 22.6862 18.6676 22.6897 18.6693C22.6933 18.671 22.6972 18.6719 22.7011 18.6719H22.9474C22.9523 18.6719 22.9571 18.6706 22.9613 18.668C22.9654 18.6654 22.9687 18.6617 22.9709 18.6572C22.973 18.6528 22.9739 18.6479 22.9733 18.6431C22.9728 18.6382 22.9709 18.6336 22.9678 18.6297L22.3997 17.9117L22.9265 17.3796C22.9301 17.3759 22.9326 17.3713 22.9335 17.3662C22.9345 17.3612 22.934 17.356 22.932 17.3512C22.93 17.3465 22.9267 17.3424 22.9224 17.3396C22.9182 17.3367 22.9131 17.3352 22.908 17.3352H22.6678C22.6644 17.3352 22.661 17.3359 22.6578 17.3372C22.6546 17.3386 22.6517 17.3405 22.6493 17.343L22.201 17.7978C22.2009 17.7979 22.2008 17.798 22.2007 17.7981C22.1771 17.8229 22.1485 17.8553 22.1147 17.8954C22.1146 17.8955 22.1145 17.8955 22.1145 17.8956C22.0995 17.9138 22.092 17.9226 22.0803 17.9366C22.0813 17.9193 22.0818 17.9047 22.083 17.8855C22.083 17.8854 22.083 17.8855 22.083 17.8855C22.0855 17.8398 22.0868 17.8011 22.0868 17.7691V16.8221C22.0868 16.8152 22.084 16.8086 22.0791 16.8037C22.0742 16.7988 22.0676 16.796 22.0607 16.796L21.8575 16.796ZM16.2481 17.2878C16.1235 17.2878 16.0132 17.3162 15.9193 17.3737C15.9192 17.3737 15.9193 17.3736 15.9193 17.3737C15.8263 17.431 15.7536 17.5135 15.7025 17.6189C15.7025 17.6189 15.7025 17.619 15.7025 17.6189C15.6521 17.7239 15.6272 17.8476 15.6272 17.9889C15.6272 18.1336 15.6546 18.2578 15.7105 18.3601C15.7661 18.4619 15.8449 18.5403 15.9453 18.5934C15.9454 18.5934 15.9454 18.5934 15.9455 18.5935C16.0466 18.6457 16.1643 18.6714 16.2973 18.6714C16.3897 18.6714 16.4701 18.6647 16.5388 18.651C16.6081 18.6373 16.6775 18.6157 16.7472 18.5861C16.7519 18.5841 16.7559 18.5808 16.7587 18.5765C16.7615 18.5722 16.763 18.5672 16.763 18.5621V18.391C16.763 18.3867 16.762 18.3825 16.76 18.3788C16.758 18.375 16.7551 18.3718 16.7515 18.3694C16.748 18.367 16.7439 18.3655 16.7396 18.3651C16.7354 18.3647 16.7311 18.3653 16.7271 18.3669C16.6577 18.3953 16.5909 18.4168 16.5268 18.4312C16.4635 18.4456 16.3899 18.4529 16.306 18.4529C16.1722 18.4529 16.0729 18.4157 16.0021 18.3424C15.9359 18.274 15.8998 18.1743 15.8933 18.0419H16.7973C16.8042 18.0419 16.8108 18.0392 16.8157 18.0343C16.8206 18.0294 16.8233 18.0228 16.8233 18.0159V17.8952C16.8233 17.7755 16.801 17.6696 16.7553 17.5787C16.7098 17.4871 16.6431 17.415 16.5569 17.3641C16.4702 17.3129 16.3667 17.2878 16.2481 17.2878ZM19.7729 17.2878C19.6405 17.2878 19.5245 17.3147 19.4264 17.3696C19.3292 17.4236 19.2538 17.5034 19.2016 17.6068C19.1493 17.7097 19.1237 17.8335 19.1237 17.9772C19.1237 18.0852 19.1389 18.1824 19.1696 18.2685C19.1696 18.2686 19.1696 18.2686 19.1696 18.2687C19.2011 18.3544 19.2452 18.4276 19.3021 18.4874C19.3021 18.4875 19.3021 18.4875 19.3022 18.4876C19.3597 18.5472 19.4278 18.5931 19.5057 18.6249C19.5058 18.6249 19.506 18.625 19.5061 18.625C19.5849 18.656 19.6712 18.6714 19.7643 18.6714C19.8639 18.6714 19.9538 18.6561 20.0336 18.6251C20.0336 18.6251 20.0337 18.6251 20.0336 18.6251C20.114 18.5933 20.1833 18.5473 20.2401 18.4874C20.2971 18.4275 20.3404 18.3541 20.3702 18.2683C20.4001 18.1822 20.4148 18.0851 20.4148 17.9773C20.4148 17.8342 20.3882 17.7106 20.3341 17.6077C20.2812 17.5045 20.2055 17.4245 20.1085 17.3697C20.0122 17.3149 19.8997 17.2878 19.7729 17.2878ZM12.4422 17.2901C12.3531 17.2901 12.2678 17.3009 12.1867 17.3226C12.1066 17.3441 12.0352 17.37 11.9727 17.4006C11.9667 17.4035 11.962 17.4086 11.9597 17.4149C11.9574 17.4211 11.9575 17.428 11.9602 17.4342L12.023 17.5819C12.0243 17.5851 12.0263 17.588 12.0288 17.5904C12.0313 17.5928 12.0343 17.5947 12.0376 17.596C12.0408 17.5972 12.0443 17.5978 12.0478 17.5977C12.0513 17.5976 12.0547 17.5968 12.0579 17.5953C12.1142 17.5692 12.1738 17.5466 12.2367 17.5274C12.2982 17.5086 12.3629 17.4992 12.4311 17.4992C12.518 17.4992 12.5815 17.5202 12.6257 17.5595C12.6677 17.5969 12.692 17.6662 12.692 17.7733V17.8268L12.4842 17.8352L12.4845 17.8351C12.2635 17.8415 12.0968 17.8789 11.9835 17.9518C11.8706 18.0246 11.8115 18.1337 11.8115 18.2691C11.8115 18.3579 11.8305 18.4337 11.8699 18.4942C11.87 18.4943 11.87 18.4944 11.8701 18.4945C11.9097 18.554 11.9642 18.599 12.0316 18.6282C12.0316 18.6282 12.0317 18.6282 12.0316 18.6282C12.0994 18.6571 12.1762 18.6714 12.2612 18.6714C12.3409 18.6714 12.4089 18.6635 12.4655 18.6469C12.4656 18.6469 12.4657 18.6468 12.4657 18.6468C12.5225 18.6296 12.5731 18.6044 12.6168 18.5711C12.6169 18.571 12.617 18.571 12.6171 18.5709C12.6502 18.5451 12.681 18.5109 12.7117 18.4762L12.7431 18.6272C12.7443 18.633 12.7475 18.6383 12.7521 18.6421C12.7567 18.6459 12.7625 18.6479 12.7685 18.6479H12.9175C12.9244 18.6479 12.9311 18.6452 12.936 18.6403C12.9408 18.6354 12.9436 18.6288 12.9436 18.6219V17.7486C12.9436 17.5933 12.9029 17.4748 12.8178 17.3998C12.7332 17.3251 12.6069 17.2901 12.4422 17.2901ZM11.4743 17.3118C11.4071 17.3118 11.345 17.3241 11.2888 17.3492C11.2888 17.3492 11.2889 17.3492 11.2888 17.3492C11.2344 17.3739 11.186 17.4074 11.1445 17.4494C11.1444 17.4494 11.1445 17.4494 11.1445 17.4494C11.117 17.4766 11.096 17.509 11.0739 17.5403L11.0569 17.3588C11.0563 17.3524 11.0533 17.3464 11.0485 17.342C11.0437 17.3376 11.0375 17.3352 11.031 17.3352H10.8611C10.8542 17.3352 10.8475 17.338 10.8427 17.3428C10.8378 17.3477 10.835 17.3543 10.835 17.3613V18.6459C10.835 18.6528 10.8378 18.6594 10.8427 18.6643C10.8475 18.6692 10.8542 18.6719 10.8611 18.6719H11.0667C11.0736 18.6719 11.0802 18.6692 11.0851 18.6643C11.09 18.6594 11.0927 18.6528 11.0927 18.6459V17.9567C11.0927 17.893 11.1026 17.8361 11.1219 17.7855C11.1219 17.7854 11.1219 17.7855 11.1219 17.7855C11.1413 17.7336 11.1678 17.6901 11.2014 17.6546C11.2015 17.6545 11.2015 17.6544 11.2016 17.6543C11.2354 17.6178 11.274 17.5904 11.3183 17.5715C11.3182 17.5716 11.3183 17.5715 11.3183 17.5715C11.3635 17.5519 11.4112 17.542 11.462 17.542C11.4847 17.542 11.5092 17.5435 11.5354 17.5465C11.5616 17.5495 11.5851 17.5537 11.606 17.5588C11.6095 17.5597 11.6132 17.5598 11.6168 17.5592C11.6204 17.5586 11.6238 17.5572 11.6268 17.5551C11.6298 17.5531 11.6324 17.5505 11.6343 17.5474C11.6362 17.5443 11.6375 17.5408 11.638 17.5372L11.6639 17.3567C11.6649 17.3501 11.6633 17.3434 11.6594 17.338C11.6556 17.3326 11.6498 17.3288 11.6433 17.3275C11.6191 17.3225 11.5918 17.3189 11.5615 17.3165C11.5313 17.3133 11.5022 17.3118 11.4743 17.3118ZM13.9628 17.3118C13.903 17.3118 13.8461 17.3199 13.7926 17.3363C13.739 17.3528 13.6903 17.3772 13.6468 17.4095C13.6159 17.4324 13.59 17.4605 13.5666 17.4909L13.5439 17.3569C13.5429 17.3508 13.5397 17.3453 13.535 17.3413C13.5303 17.3374 13.5244 17.3352 13.5182 17.3352H13.3532C13.3463 17.3352 13.3397 17.338 13.3348 17.3428C13.3299 17.3477 13.3272 17.3543 13.3272 17.3612V18.6459C13.3272 18.6528 13.3299 18.6594 13.3348 18.6643C13.3397 18.6692 13.3463 18.6719 13.3532 18.6719H13.5576C13.5645 18.6719 13.5712 18.6692 13.576 18.6643C13.5809 18.6594 13.5837 18.6528 13.5837 18.6459V17.966C13.5837 17.8674 13.5954 17.7854 13.6179 17.7204C13.6179 17.7204 13.6179 17.7204 13.6179 17.7204C13.641 17.6553 13.6767 17.6083 13.7258 17.5765C13.7745 17.5449 13.841 17.528 13.9271 17.528C13.9871 17.528 14.0345 17.5391 14.0706 17.5597C14.0708 17.5598 14.0709 17.5599 14.0711 17.56C14.108 17.5799 14.1348 17.6092 14.1533 17.6508C14.1533 17.6509 14.1534 17.651 14.1534 17.6511C14.1727 17.6927 14.1831 17.7468 14.1831 17.8137V18.6459C14.1831 18.6528 14.1858 18.6594 14.1907 18.6643C14.1956 18.6692 14.2022 18.6719 14.2091 18.6719H14.4123C14.4192 18.6719 14.4258 18.6692 14.4307 18.6643C14.4356 18.6594 14.4383 18.6528 14.4383 18.6459V17.9273C14.4383 17.7911 14.4672 17.6918 14.521 17.6263C14.5742 17.5617 14.6597 17.528 14.7854 17.528C14.8733 17.528 14.9342 17.5518 14.9753 17.5978C14.9754 17.5979 14.9755 17.598 14.9756 17.5981C15.0173 17.6433 15.0402 17.7137 15.0402 17.8137V18.6459C15.0402 18.6528 15.0429 18.6594 15.0478 18.6643C15.0527 18.6692 15.0593 18.6719 15.0662 18.6719H15.2682C15.2751 18.6719 15.2817 18.6692 15.2866 18.6643C15.2915 18.6594 15.2942 18.6528 15.2942 18.6459V17.8043C15.2942 17.637 15.2555 17.5107 15.1731 17.4306C15.0915 17.3504 14.9716 17.3118 14.8187 17.3118C14.7234 17.3118 14.6348 17.3309 14.554 17.3693C14.554 17.3693 14.5541 17.3693 14.554 17.3693C14.554 17.3693 14.5539 17.3694 14.5538 17.3694C14.4814 17.4032 14.4242 17.4561 14.379 17.5219C14.3451 17.4567 14.2976 17.4035 14.2322 17.3698C14.1585 17.3306 14.0684 17.3118 13.9628 17.3118ZM21.3413 17.3118C21.2741 17.3118 21.212 17.3241 21.1558 17.3492C21.1558 17.3492 21.1559 17.3492 21.1558 17.3492C21.1014 17.3739 21.053 17.4074 21.0115 17.4494C21.0114 17.4494 21.0115 17.4494 21.0115 17.4494C20.984 17.4766 20.963 17.509 20.9409 17.5403L20.9239 17.3588C20.9233 17.3524 20.9203 17.3464 20.9155 17.342C20.9107 17.3376 20.9045 17.3352 20.898 17.3352H20.728C20.7211 17.3352 20.7145 17.338 20.7096 17.3428C20.7047 17.3477 20.702 17.3543 20.702 17.3613V18.6459C20.702 18.6528 20.7047 18.6594 20.7096 18.6643C20.7145 18.6692 20.7211 18.6719 20.728 18.6719H20.9337C20.9406 18.6719 20.9472 18.6692 20.9521 18.6643C20.957 18.6594 20.9597 18.6528 20.9597 18.6459V17.9567C20.9597 17.893 20.9696 17.8361 20.9889 17.7855C20.9889 17.7854 20.9889 17.7855 20.9889 17.7855C21.0083 17.7336 21.0348 17.6901 21.0684 17.6546C21.0684 17.6545 21.0685 17.6544 21.0685 17.6543C21.1023 17.6178 21.141 17.5904 21.1853 17.5715C21.1852 17.5716 21.1853 17.5715 21.1853 17.5715C21.2304 17.5519 21.2782 17.542 21.329 17.542C21.3517 17.542 21.3761 17.5435 21.4023 17.5465C21.4285 17.5495 21.4521 17.5537 21.473 17.5588C21.4765 17.5597 21.4802 17.5598 21.4838 17.5592C21.4874 17.5586 21.4908 17.5572 21.4938 17.5551C21.4968 17.5531 21.4994 17.5505 21.5013 17.5474C21.5032 17.5443 21.5045 17.5408 21.505 17.5372L21.5309 17.3567C21.5318 17.3501 21.5302 17.3434 21.5264 17.338C21.5226 17.3326 21.5168 17.3288 21.5103 17.3275C21.486 17.3225 21.4588 17.3189 21.4285 17.3165C21.3983 17.3133 21.3692 17.3118 21.3413 17.3118ZM17.0389 17.3353C17.0349 17.3353 17.0309 17.3362 17.0273 17.338C17.0237 17.3398 17.0206 17.3424 17.0181 17.3456C17.0157 17.3489 17.0141 17.3526 17.0133 17.3566C17.0126 17.3606 17.0128 17.3646 17.0139 17.3685L17.3858 18.6532C17.3874 18.6586 17.3907 18.6634 17.3952 18.6668C17.3997 18.6702 17.4052 18.672 17.4109 18.672H17.6412C17.6466 18.672 17.6519 18.6703 17.6563 18.6671C17.6608 18.6639 17.6641 18.6595 17.6658 18.6543L17.9169 17.9105C17.9286 17.878 17.939 17.8457 17.9482 17.8139C17.9482 17.8139 17.9482 17.8138 17.9482 17.8137C17.9572 17.7817 17.9654 17.7513 17.9728 17.7224L17.973 17.7217C17.9785 17.7022 17.9827 17.6852 17.9872 17.6677C17.9918 17.6851 17.9964 17.7021 18.0014 17.7217C18.0015 17.722 18.0015 17.7223 18.0016 17.7226C18.0098 17.7507 18.0185 17.7804 18.0275 17.8116C18.0276 17.8119 18.0276 17.8121 18.0277 17.8124C18.0376 17.8429 18.0479 17.8742 18.0586 17.9063L18.2987 18.6539C18.3003 18.6592 18.3036 18.6638 18.3081 18.667C18.3125 18.6702 18.3179 18.672 18.3234 18.672H18.5611C18.5667 18.672 18.5722 18.6702 18.5767 18.6668C18.5812 18.6634 18.5845 18.6587 18.5861 18.6532L18.9592 17.3686C18.9604 17.3647 18.9606 17.3606 18.9599 17.3566C18.9591 17.3527 18.9575 17.3489 18.9551 17.3457C18.9526 17.3424 18.9495 17.3398 18.9459 17.338C18.9422 17.3362 18.9383 17.3353 18.9342 17.3353H18.7261C18.7204 17.3353 18.7149 17.3371 18.7104 17.3406C18.7058 17.344 18.7026 17.3489 18.701 17.3543L18.504 18.0635C18.504 18.0635 18.504 18.0634 18.504 18.0635C18.4909 18.112 18.4781 18.1599 18.4657 18.2069C18.4657 18.207 18.4656 18.2071 18.4656 18.2073C18.4545 18.2528 18.4446 18.2942 18.4357 18.3324C18.4259 18.2942 18.4149 18.2549 18.4027 18.2145L18.4025 18.2141C18.391 18.1734 18.379 18.1341 18.3666 18.0965L18.1265 17.3533C18.1248 17.348 18.1215 17.3435 18.117 17.3403C18.1126 17.337 18.1072 17.3353 18.1017 17.3353H17.8813C17.8759 17.3353 17.8705 17.337 17.8661 17.3402C17.8617 17.3434 17.8583 17.3479 17.8566 17.3531L17.6079 18.0974C17.6079 18.0974 17.6079 18.0974 17.6079 18.0974C17.5987 18.1251 17.5896 18.1547 17.5805 18.1863C17.5714 18.2169 17.5627 18.248 17.5544 18.2795C17.5544 18.2797 17.5543 18.2798 17.5543 18.28C17.5491 18.3011 17.5445 18.3205 17.5398 18.3401C17.5392 18.3375 17.5391 18.3358 17.5385 18.3331C17.5302 18.2922 17.5199 18.249 17.5076 18.2036L17.5074 18.2031C17.4959 18.157 17.4836 18.1105 17.4705 18.0636L17.2759 17.3544C17.2744 17.3489 17.2711 17.344 17.2666 17.3406C17.262 17.3371 17.2565 17.3353 17.2508 17.3353L17.0389 17.3353ZM16.2457 17.4992C16.3191 17.4992 16.3768 17.5148 16.4209 17.5441C16.421 17.5442 16.421 17.5442 16.4211 17.5443C16.4659 17.5734 16.4988 17.6139 16.5209 17.6682C16.5209 17.6684 16.521 17.6685 16.521 17.6686C16.5411 17.7158 16.5514 17.7718 16.5546 17.834H15.9015C15.9164 17.7319 15.9489 17.6503 16.0034 17.5931C16.0633 17.5304 16.1419 17.4992 16.2457 17.4992ZM19.768 17.504C19.8596 17.504 19.9315 17.5234 19.9862 17.5604C20.0415 17.5979 20.0823 17.6508 20.1094 17.7217C20.1094 17.7217 20.1095 17.7217 20.1094 17.7217C20.1367 17.7922 20.1508 17.8773 20.1508 17.9772C20.1508 18.078 20.1367 18.1643 20.1094 18.2364C20.0823 18.308 20.0411 18.3616 19.9849 18.3999C19.9848 18.3999 19.9848 18.4 19.9847 18.4C19.93 18.4378 19.859 18.4576 19.7693 18.4576C19.6787 18.4576 19.6072 18.4378 19.5525 18.4C19.4971 18.3617 19.4562 18.308 19.4291 18.2364C19.4017 18.1643 19.3877 18.078 19.3877 17.9772C19.3877 17.8246 19.4194 17.7083 19.4798 17.6259C19.4798 17.6259 19.4799 17.6258 19.4799 17.6258C19.5403 17.5447 19.6332 17.504 19.768 17.504ZM12.6897 18.016V18.1073C12.6897 18.2287 12.6544 18.3142 12.5846 18.3721C12.5134 18.4311 12.4222 18.461 12.3069 18.461C12.2337 18.461 12.1779 18.4446 12.1366 18.4135C12.0968 18.3836 12.0768 18.3394 12.0768 18.2714C12.0768 18.1941 12.1058 18.1393 12.1687 18.0973C12.23 18.0563 12.345 18.0294 12.5111 18.0232C12.511 18.0232 12.5111 18.0232 12.5111 18.0232L12.6897 18.016Z" fill="#212121"/>
</svg>
