<svg width="24" height="22" viewBox="0 0 24 22" fill="none" xmlns="http://www.w3.org/2000/svg">
<path d="M10.7347 15.6582C11.1472 15.677 11.5687 15.6905 11.9955 15.6905C12.4267 15.6905 12.8527 15.6815 13.2705 15.6582C12.8527 16.1982 12.4402 16.676 12.0037 17.1312L12.0097 17.1252C11.5755 16.6752 11.1585 16.1967 10.7655 15.6987L10.7347 15.6582ZM6.46122 15.0582C7.27347 15.2645 8.26422 15.44 9.27522 15.548L9.37347 15.5562C9.99222 16.406 10.6177 17.1537 11.289 17.8572L11.2807 17.8482C10.2975 18.9455 8.97072 19.7165 7.46997 19.9932L7.42872 19.9992C7.42572 19.9992 7.42272 19.9992 7.41972 19.9992C7.23372 19.9992 7.05822 19.9535 6.90447 19.8725L6.91047 19.8755C6.28647 19.5192 6.01572 18.1565 6.22647 16.4052C6.27672 15.974 6.35922 15.5202 6.46047 15.0575L6.46122 15.0582ZM17.5485 15.0485C17.637 15.404 17.7202 15.857 17.7795 16.3175L17.7862 16.382C18.0015 18.1325 17.736 19.4937 17.1172 19.8575C16.9792 19.934 16.8142 19.979 16.6387 19.979C16.6215 19.979 16.6042 19.9782 16.587 19.9775H16.5892C15.0495 19.6962 13.7235 18.9305 12.7425 17.8467L12.7372 17.8407C13.3965 17.1485 14.0175 16.4022 14.5867 15.617L14.6302 15.554C15.7372 15.4385 16.7295 15.26 17.6962 15.0162L17.5485 15.0477V15.0485ZM7.33797 12.2495C7.52547 12.617 7.72197 12.983 7.93797 13.3505C8.15347 13.716 8.37372 14.073 8.59872 14.4215C7.94772 14.3262 7.31922 14.2062 6.71847 14.06C6.88722 13.4697 7.09872 12.8585 7.33722 12.248L7.33797 12.2495ZM16.659 12.2307C16.9072 12.8465 17.118 13.4607 17.2927 14.0562C16.6927 14.2032 16.059 14.3277 15.4035 14.4215C15.6285 14.0697 15.8535 13.7075 16.0642 13.3362C16.275 12.971 16.4722 12.5975 16.6605 12.23L16.659 12.2307ZM5.71422 8.21897C6.04122 9.32747 6.39222 10.2545 6.80097 11.1485L6.74472 11.012C6.39522 11.7657 6.04947 12.6875 5.76597 13.6362L5.72697 13.79C5.19747 13.6272 4.77147 13.4675 4.35672 13.2882L4.44297 13.3212C2.81997 12.6305 1.76997 11.7222 1.76997 11.0022C1.76997 10.2822 2.81997 9.36947 4.44297 8.68172C4.83672 8.51297 5.26872 8.36072 5.71422 8.21897ZM18.2685 8.21522C18.7222 8.35547 19.1535 8.51222 19.557 8.68172C21.18 9.37547 22.23 10.2822 22.23 11.0022C22.2255 11.7222 21.1755 12.6327 19.5525 13.322C19.1587 13.4907 18.7275 13.6422 18.2827 13.784C17.9527 12.6717 17.6017 11.7455 17.1945 10.85L17.2515 10.991C17.5995 10.238 17.946 9.31622 18.2287 8.36747L18.2685 8.21297V8.21522ZM15.3975 7.58297C16.0492 7.67972 16.677 7.79822 17.2777 7.94597C17.109 8.53847 16.8982 9.14747 16.659 9.75797C16.4715 9.39272 16.275 9.02447 16.059 8.65772C15.8482 8.29022 15.6232 7.93247 15.3982 7.58372L15.3975 7.58297ZM8.59347 7.58297C8.36847 7.93622 8.14347 8.29772 7.93347 8.67047C7.72272 9.03572 7.52547 9.40322 7.33797 9.77072C7.08972 9.15572 6.87897 8.54297 6.70422 7.94597C7.30422 7.80572 7.93647 7.68047 8.59272 7.58447L8.59347 7.58297ZM12 7.34447C12.6937 7.34447 13.3845 7.37597 14.064 7.43147C14.4445 7.97697 14.814 8.55797 15.1725 9.17447C15.521 9.77447 15.839 10.3825 16.1265 10.9985C15.8377 11.6127 15.5212 12.2262 15.177 12.8262C14.8207 13.445 14.4525 14.0337 14.0707 14.579C13.3882 14.6382 12.6967 14.6705 11.9992 14.6705C11.3055 14.6705 10.6147 14.6375 9.93522 14.5835C9.55497 14.0382 9.18372 13.4547 8.82672 12.8405C8.47822 12.2405 8.16022 11.6325 7.87272 11.0165C8.15697 10.4007 8.47797 9.78572 8.82222 9.18497C9.17847 8.56622 9.54672 7.97972 9.92847 7.43447C10.611 7.37447 11.3025 7.34297 12 7.34297V7.34447ZM11.9857 4.88372C12.4207 5.33372 12.8377 5.81147 13.23 6.30947L13.26 6.34922C12.8475 6.33047 12.426 6.31772 11.9992 6.31772C11.568 6.31772 11.142 6.32672 10.7242 6.34922C11.1412 5.80922 11.5537 5.33147 11.991 4.87622L11.985 4.88222L11.9857 4.88372ZM7.40997 2.02472C8.94972 2.30672 10.275 3.07247 11.2567 4.15547L11.262 4.16147C10.6027 4.85447 9.98172 5.60072 9.41247 6.38747L9.36897 6.45047C8.26272 6.56522 7.27047 6.74222 6.30447 6.98597L6.45147 6.95447C6.34647 6.49547 6.26847 6.05072 6.21372 5.62397C5.99847 3.87347 6.26397 2.51222 6.88272 2.14997C7.03722 2.07722 7.21797 2.03222 7.40847 2.02622H7.41072L7.40997 2.02472ZM16.5675 2.00597V2.01197C16.5772 2.01197 16.5885 2.01122 16.6005 2.01122C16.7797 2.01122 16.9485 2.05547 17.097 2.13347L17.091 2.13047C17.715 2.48822 17.9857 3.85022 17.775 5.60222C17.7247 6.03347 17.6422 6.48797 17.541 6.95147C16.7272 6.74297 15.7365 6.56672 14.7255 6.45947L14.6295 6.45122C14.01 5.60072 13.3845 4.85297 12.7132 4.14872L12.7222 4.15772C13.7055 3.06272 15.03 2.29172 16.5277 2.01347L16.5697 2.00672L16.5675 2.00597ZM16.572 0.984471C14.7405 1.26272 13.155 2.15222 11.997 3.43547L11.991 3.44222C10.8247 2.15972 9.23922 1.27622 7.45272 1.00847L7.41072 1.00322C7.40097 1.00322 7.38897 1.00322 7.37697 1.00322C7.00872 1.00322 6.66297 1.09997 6.36372 1.26947L6.37422 1.26422C5.08572 2.00747 4.79697 4.32347 5.46222 7.22972C2.60922 8.11097 0.753723 9.51947 0.753723 11.0037C0.753723 12.494 2.61897 13.9062 5.48022 14.7807C4.82022 17.6982 5.11497 20.018 6.40647 20.7605C6.68997 20.9232 7.03047 21.0185 7.39272 21.0185C7.40922 21.0185 7.42572 21.0185 7.44147 21.0177H7.43922C9.27072 20.7395 10.8562 19.8492 12.0142 18.5652L12.0202 18.5585C13.1865 19.8417 14.772 20.7252 16.5585 20.993L16.6005 20.9982C16.6117 20.9982 16.626 20.9982 16.6395 20.9982C17.0055 20.9982 17.3497 20.9022 17.6475 20.735L17.637 20.7402C18.9247 19.9977 19.2142 17.6817 18.549 14.7747C21.3915 13.901 23.247 12.4895 23.247 11.003C23.247 9.51272 21.3817 8.10047 18.5205 7.22372C19.1805 4.30922 18.8857 1.98722 17.5942 1.24397C17.3077 1.07972 16.9642 0.982971 16.5982 0.982971C16.5885 0.982971 16.5787 0.982971 16.569 0.982971H16.5705L16.572 0.984471ZM14.0902 11.0037C14.0902 12.161 13.152 13.0992 11.9947 13.0992C10.8375 13.0992 9.89922 12.161 9.89922 11.0037C9.89922 9.84647 10.8375 8.90822 11.9947 8.90822C12.5737 8.90822 13.0972 9.14297 13.4767 9.52172C13.8562 9.90122 14.0902 10.4247 14.0902 11.0037Z" fill="#019CFF"/>
</svg>
