<svg width="24" height="24" viewBox="0 0 24 24" fill="none" xmlns="http://www.w3.org/2000/svg">
<g id="Frame">
<g id="Layer_1">
<g id="Group">
<path id="Vector" d="M12.0789 16.1649L18.0749 17.6157V6.35803L12.0789 7.80979V16.1649Z" fill="#8C3123"/>
<path id="Vector_2" d="M18.0751 6.35803L19.2273 6.93403V17.0431L18.0751 17.6188V6.35803Z" fill="#E05243"/>
<path id="Vector_3" d="M14.6942 8.36543L12.0789 7.71839V3.35999L14.6942 4.66751V8.36543Z" fill="#E05243"/>
<path id="Vector_4" d="M12.0789 20.64L14.694 19.3329V15.635L12.0789 16.2818V20.64Z" fill="#E05243"/>
<path id="Vector_5" d="M14.6942 13.8513L12.0789 14.1842V9.82556L14.6942 10.1536V13.8513Z" fill="#E05243"/>
<path id="Vector_6" d="M12.079 16.1649L6.08279 17.6157V6.35803L12.079 7.80979V16.1649Z" fill="#E05243"/>
<path id="Vector_7" d="M6.08279 6.35803L4.93103 6.93403V17.0431L6.08279 17.6188V6.35803Z" fill="#8C3123"/>
<path id="Vector_8" d="M9.46439 8.36543L12.0789 7.71839V3.35999L9.46439 4.66751V8.36543Z" fill="#8C3123"/>
<path id="Vector_9" d="M12.0789 20.64L9.46414 19.3329V15.635L12.0789 16.2818V20.64Z" fill="#8C3123"/>
<path id="Vector_10" d="M9.46439 13.8513L12.0789 14.1842V9.82556L9.46439 10.1536V13.8513Z" fill="#8C3123"/>
<path id="Vector_11" d="M14.6942 8.36542L12.0789 8.84206L9.46439 8.36542L12.0789 7.71838L14.6942 8.36542Z" fill="#5E1F18"/>
<path id="Vector_12" d="M14.6942 15.6348L12.0789 15.155L9.46439 15.6348L12.0789 16.2859L14.6942 15.6348Z" fill="#F2B0A9"/>
</g>
</g>
</g>
</svg>
