<svg width="28" height="28" viewBox="0 0 28 28" fill="#fff" xmlns="http://www.w3.org/2000/svg">
<path fill-rule="evenodd" clip-rule="evenodd" d="M17.6379 27.9407C26.9809 27.6708 27.9004 25.7041 27.9004 14.5388C27.9004 2.21876 26.7804 1.09875 14.4604 1.09875C2.14047 1.09875 1.02048 2.21876 1.02048 14.5388C1.02048 25.7332 1.94559 27.6809 11.3558 27.9429C11.4376 27.841 11.4678 27.7133 11.4678 27.5834C11.4678 27.3034 11.4566 24.4295 11.451 23.4405C8.04959 24.1562 7.33167 21.8513 7.33167 21.8513C6.77503 20.4826 5.97311 20.1175 5.97311 20.1175C4.86319 19.3828 6.05711 19.3973 6.05711 19.3973C7.28463 19.4813 7.93087 20.6193 7.93087 20.6193C9.02175 22.4303 10.7936 21.9073 11.4902 21.6037C11.6011 20.8388 11.9169 20.3157 12.2664 20.0201C9.55039 19.721 6.69551 18.7041 6.69551 14.1625C6.69551 12.8689 7.17263 11.8116 7.95439 10.9828C7.82783 10.6826 7.40895 9.47748 8.07423 7.84676C8.07423 7.84676 9.10127 7.52756 11.4376 9.06084C12.4131 8.79764 13.4592 8.6666 14.4996 8.66212C15.5379 8.6666 16.584 8.79764 17.5617 9.06084C19.8969 7.52756 20.9217 7.84676 20.9217 7.84676C21.5892 9.47748 21.1692 10.6826 21.0427 10.9828C21.8267 11.8116 22.3004 12.8689 22.3004 14.1625C22.3004 18.7153 19.4411 19.7177 16.7161 20.01C17.1552 20.3762 17.546 21.0997 17.546 22.2052C17.546 23.2647 17.5393 25.1385 17.5348 26.3805C17.5326 26.9954 17.5315 27.4546 17.5315 27.5834C17.5315 27.7055 17.564 27.8343 17.6379 27.9407Z" fill="black"/>
</svg>
