<svg width="24" height="24" viewBox="0 0 24 24" fill="none" xmlns="http://www.w3.org/2000/svg">
<g id="docker">
<path id="Vector" d="M23.0092 10.0253C22.5495 9.7223 21.9847 9.54155 21.378 9.54155C21.3082 9.54155 21.2392 9.5438 21.171 9.5483L21.18 9.54755C20.8455 9.5483 20.5185 9.5783 20.2005 9.6338L20.235 9.62855C20.0587 8.6108 19.4662 7.7573 18.6435 7.2353L18.6292 7.22705L18.3075 7.04105L18.096 7.34705C17.844 7.73105 17.6467 8.17805 17.529 8.6558L17.523 8.68505C17.4562 8.92805 17.418 9.20705 17.418 9.49505C17.418 10.1183 17.598 10.6988 17.9085 11.1886L17.901 11.1758C17.4232 11.4001 16.8652 11.5418 16.278 11.5688H16.2682H1.47149C1.08449 11.5696 0.770988 11.8823 0.769488 12.2686C0.768738 12.3106 0.768738 12.3608 0.768738 12.4111C0.768738 13.7243 1.00649 14.9821 1.44149 16.1438L1.41749 16.0703C1.83599 17.2951 2.62649 18.3016 3.65249 18.9811L3.67349 18.9938C4.98149 19.6711 6.52949 20.0678 8.16974 20.0678C8.32499 20.0678 8.47874 20.0641 8.63249 20.0573L8.61074 20.0581C8.62424 20.0581 8.63999 20.0581 8.65574 20.0581C9.60974 20.0581 10.542 19.9673 11.4457 19.7941L11.3535 19.8091C12.6997 19.5571 13.8997 19.1048 14.9872 18.4793L14.9317 18.5086C15.8745 17.9573 16.68 17.2928 17.3655 16.5196L17.3745 16.5091C18.3682 15.3391 19.1767 13.9733 19.7332 12.4853L19.764 12.3916H19.971C20.0122 12.3931 20.0602 12.3946 20.1082 12.3946C21.0277 12.3946 21.8632 12.0338 22.4805 11.4458L22.479 11.4473C22.7617 11.1788 22.986 10.8526 23.1337 10.4866L23.1405 10.4686L23.232 10.1993L23.0092 10.0253ZM2.84249 11.1368H4.82699C4.92224 11.1361 4.99949 11.0588 4.99949 10.9636V9.1973C4.99949 9.10205 4.92224 9.02405 4.82699 9.0233H2.84249C2.74724 9.02405 2.66999 9.1013 2.66999 9.19655V10.9636C2.66999 11.0588 2.74724 11.1368 2.84249 11.1368ZM5.57549 11.1368H7.55849C7.65374 11.1368 7.73174 11.0596 7.73174 10.9636V9.1973C7.73174 9.10205 7.65449 9.02405 7.55924 9.0233H5.57474C5.47874 9.0233 5.40074 9.1013 5.40074 9.1973V10.9636C5.40149 11.0596 5.47949 11.1368 5.57549 11.1368ZM8.34899 11.1368H10.3335C10.4287 11.1361 10.506 11.0588 10.506 10.9636V9.1973C10.506 9.10205 10.4287 9.02405 10.3335 9.0233H8.34899C8.25374 9.02405 8.17649 9.1013 8.17649 9.19655V10.9636C8.17649 11.0588 8.25374 11.1368 8.34974 11.1368H8.34899ZM11.091 11.1368H13.0732C13.1692 11.1368 13.2465 11.0596 13.2472 10.9636V9.1973C13.2472 9.1013 13.1692 9.0233 13.0732 9.0233H11.091C10.9957 9.0233 10.9177 9.10055 10.9177 9.19655V10.9636C10.9177 11.0588 10.995 11.1368 11.0902 11.1368C11.0902 11.1368 11.0902 11.1368 11.091 11.1368ZM5.57549 8.5958H7.55849C7.65449 8.59505 7.73174 8.5178 7.73174 8.4218V6.65555C7.73174 6.5603 7.65449 6.4823 7.55849 6.4823H5.57549C5.47949 6.4823 5.40224 6.55955 5.40149 6.65555V8.4218C5.40224 8.5178 5.47949 8.59505 5.57549 8.5958ZM8.34899 8.5958H10.3335C10.4287 8.59505 10.506 8.51705 10.506 8.4218V6.65555C10.506 6.5603 10.4287 6.4823 10.3327 6.4823H8.35049C8.25524 6.4823 8.17724 6.55955 8.17724 6.65555V8.4218C8.17799 8.5178 8.25449 8.59505 8.35049 8.5958H8.34899ZM11.091 8.5958H13.0732C13.1692 8.59505 13.2465 8.5178 13.2472 8.4218V6.65555C13.2465 6.55955 13.1692 6.4823 13.0732 6.4823H11.091C10.9957 6.4823 10.9177 6.55955 10.9177 6.65555V8.4218C10.9177 8.5178 10.995 8.59505 11.091 8.5958ZM11.091 6.0548H13.0732C13.1692 6.0548 13.2472 5.9768 13.2472 5.8808V4.1138C13.2465 4.0178 13.1692 3.94055 13.0732 3.94055H11.091C10.9957 3.94055 10.9177 4.0178 10.9177 4.1138V5.8808C10.9177 5.97605 10.995 6.05405 11.0902 6.05405C11.0902 6.05405 11.0902 6.05405 11.091 6.05405V6.0548ZM13.8562 11.1368H15.8392C15.9352 11.1368 16.0125 11.0596 16.0132 10.9636V9.1973C16.0132 9.1013 15.9352 9.0233 15.8392 9.0233H13.8562C13.7602 9.0233 13.683 9.10055 13.683 9.19655V10.9636C13.683 11.0588 13.7602 11.1368 13.8562 11.1368Z" fill="#1D63ED"/>
</g>
</svg>
