<svg width="24" height="24" viewBox="0 0 24 24" fill="none" xmlns="http://www.w3.org/2000/svg">
<g id="Layer_1" clip-path="url(#clip0_59_207)">
<g id="Group">
<path id="Vector" d="M23.0615 10.932L23.0605 10.9315L12.5615 0.42569C11.9951 -0.142059 11.0039 -0.141571 10.4395 0.425201L-0.0615234 10.932C-0.34375 11.2159 -0.5 11.5926 -0.5 11.9928C-0.5 12.3934 -0.34375 12.7705 -0.0605469 13.0539L10.4385 23.5598C10.7217 23.8437 11.0986 24 11.5 24C11.9014 24 12.2783 23.8437 12.5605 23.5603L23.0605 13.0539C23.3438 12.7705 23.5 12.3934 23.5 11.9928C23.5 11.5926 23.3438 11.2159 23.0615 10.932Z" fill="#EF473B"/>
<path id="Vector_2" opacity="0.1" d="M23.181 12.6899L12.5716 23.3057C12.2864 23.592 11.9055 23.7501 11.5 23.7501C11.0945 23.7501 10.7136 23.592 10.4274 23.3052L-0.180969 12.6899C-0.304932 12.5659 -0.399658 12.4216 -0.473083 12.2677C-0.418518 12.5637 -0.277771 12.8366 -0.0605469 13.054L10.4385 23.5598C10.7217 23.8437 11.0986 24.0001 11.5 24.0001C11.9014 24.0001 12.2783 23.8437 12.5605 23.5603L23.0605 13.054C23.2778 12.8366 23.4186 12.5637 23.4731 12.2677C23.3997 12.4216 23.3049 12.5659 23.181 12.6899Z" fill="#010101"/>
<path id="Vector_3" d="M16.5 10.0001C16.1251 10.0001 15.778 10.1101 15.4778 10.2903L13.2097 8.02228C13.3899 7.72211 13.5 7.375 13.5 7.00006C13.5 5.89703 12.6025 5.00006 11.5 5.00006C11.1301 5.00006 10.7877 5.10785 10.4902 5.28363L8.03644 2.82959L7.32959 3.5368L9.78326 5.99078C9.60773 6.28815 9.5 6.63037 9.5 7.00006C9.5 7.92938 10.14 8.70544 11 8.92902V15.0711C10.14 15.2947 9.5 16.0707 9.5 17.0001C9.5 18.1031 10.3975 19.0001 11.5 19.0001C12.6025 19.0001 13.5 18.1031 13.5 17.0001C13.5 16.0707 12.86 15.2947 12 15.0711V8.92902C12.1768 8.88306 12.3425 8.81317 12.4969 8.72351L14.7766 11.0032C14.6053 11.2979 14.5 11.6354 14.5 12.0001C14.5 13.1031 15.3975 14.0001 16.5 14.0001C17.6025 14.0001 18.5 13.1031 18.5 12.0001C18.5 10.897 17.6025 10.0001 16.5 10.0001Z" fill="white"/>
<path id="Vector_4" opacity="0.2" d="M-0.0615234 11.182L10.4395 0.675201C11.0039 0.108429 11.9951 0.107941 12.5615 0.67569L23.0605 11.1815L23.0615 11.182C23.3138 11.4358 23.4585 11.7653 23.4878 12.1178C23.4913 12.076 23.5 12.0352 23.5 11.9928C23.5 11.5926 23.3438 11.2159 23.0615 10.932L23.0605 10.9315L12.5615 0.42569C11.9951 -0.142059 11.0039 -0.141571 10.4395 0.425201L-0.0615234 10.932C-0.34375 11.2159 -0.5 11.5926 -0.5 11.9928C-0.5 12.0352 -0.491272 12.0759 -0.487793 12.1177C-0.458435 11.7652 -0.313782 11.4358 -0.0615234 11.182Z" fill="white"/>
<path id="Vector_5" d="M18.0488 10.7504C18.3265 11.0939 18.5 11.5249 18.5 12.0001C18.5 13.1031 17.6025 14.0001 16.5 14.0001C15.3975 14.0001 14.5 13.1031 14.5 12.0001C14.5 11.6354 14.6053 11.2979 14.7766 11.0032L12.4969 8.72351C12.3425 8.81317 12.1768 8.88306 12 8.92902V15.0711C12.86 15.2947 13.5 16.0707 13.5 17.0001C13.5 18.1031 12.6025 19.0001 11.5 19.0001C10.9885 19.0001 10.5262 18.8014 10.1721 18.4843L13.9039 22.2161L21.7068 14.4084L18.0488 10.7504ZM13.2097 8.02228L15.4778 10.2903C15.778 10.1101 16.1251 10.0001 16.5 10.0001C16.9751 10.0001 17.4062 10.1736 17.7498 10.4514L13.0721 5.77368L13.0697 5.7757C13.3351 6.11511 13.5 6.53668 13.5 7.00006C13.5 7.375 13.3899 7.72211 13.2097 8.02228Z" fill="url(#paint0_linear_59_207)"/>
<path id="Vector_6" d="M23.0615 10.932L23.0605 10.9315L12.5615 0.42569C11.9951 -0.142059 11.0039 -0.141571 10.4395 0.425201L-0.0615234 10.932C-0.34375 11.2159 -0.5 11.5926 -0.5 11.9928C-0.5 12.3934 -0.34375 12.7705 -0.0605469 13.0539L10.4385 23.5598C10.7217 23.8437 11.0986 24 11.5 24C11.9014 24 12.2783 23.8437 12.5605 23.5603L23.0605 13.0539C23.3438 12.7705 23.5 12.3934 23.5 11.9928C23.5 11.5926 23.3438 11.2159 23.0615 10.932Z" fill="url(#paint1_linear_59_207)"/>
</g>
</g>
<defs>
<linearGradient id="paint0_linear_59_207" x1="9.16927" y1="9.67613" x2="17.8066" y2="18.3135" gradientUnits="userSpaceOnUse">
<stop stop-color="#010101" stop-opacity="0.1"/>
<stop offset="1" stop-color="#010101" stop-opacity="0"/>
</linearGradient>
<linearGradient id="paint1_linear_59_207" x1="1.51382" y1="7.33994" x2="21.4834" y2="16.6519" gradientUnits="userSpaceOnUse">
<stop stop-color="white" stop-opacity="0.2"/>
<stop offset="1" stop-color="white" stop-opacity="0"/>
</linearGradient>
<clipPath id="clip0_59_207">
<rect width="24" height="24" fill="white" transform="translate(-0.5)"/>
</clipPath>
</defs>
</svg>
