<svg width="24" height="24" viewBox="0 0 24 24" fill="none" xmlns="http://www.w3.org/2000/svg">
<path d="M11.8658 17.3888C11.8658 17.3888 11.8658 9.61803 12.1238 9.61878C12.3233 9.61878 12.5828 19.6425 12.5828 19.6425C12.2258 19.6005 11.8658 17.9933 11.8658 17.3888ZM16.8668 9.70878C16.1775 6.69678 14.6678 4.10703 12.5858 2.10828L12.5805 2.10378C12.327 1.71678 12.0953 1.27278 11.9093 0.804784L11.8913 0.753784C11.892 0.768784 11.892 0.786784 11.892 0.804784C11.892 1.22853 11.7023 1.60728 11.403 1.86153L11.4008 1.86303C8.72026 4.13853 7.01476 7.49178 6.95851 11.244V11.2538C6.95776 11.3003 6.95776 11.355 6.95776 11.4098C6.95776 15.1275 8.74651 18.4275 11.5103 20.496L11.5395 20.517L11.6048 20.5643C11.7253 21.4563 11.8283 22.3503 11.9138 23.2463H12.3645C12.489 22.128 12.657 21.1493 12.8768 20.1893L12.8423 20.3685C13.1393 20.1623 13.3988 19.9485 13.641 19.7168L13.6388 19.719C15.7395 17.7713 17.0505 14.9963 17.0505 11.916C17.0505 11.8703 17.0505 11.8253 17.0498 11.7795V11.7863C17.0475 11.0505 16.9808 10.3313 16.854 9.63303L16.8653 9.70728L16.8668 9.70878Z" fill="#023430"/>
</svg>
