<svg width="24" height="22" viewBox="0 0 24 22" fill="none" xmlns="http://www.w3.org/2000/svg">
<g clip-path="url(#clip0_54_64)">
<path d="M12 1.85C11.7273 1.84995 11.459 1.91874 11.22 2.05L3.78 6.35C3.54289 6.48922 3.34621 6.68791 3.20942 6.92642C3.07262 7.16494 3.00043 7.43503 3 7.71V16.29C3.00043 16.565 3.07262 16.835 3.20942 17.0736C3.34621 17.3121 3.54289 17.5108 3.78 17.65L5.78 18.77C6.2952 19.0826 6.88738 19.2454 7.49 19.24C7.79667 19.2633 8.1047 19.2181 8.39168 19.1074C8.67865 18.9968 8.93738 18.8236 9.14903 18.6005C9.36069 18.3773 9.51996 18.1098 9.61527 17.8174C9.71057 17.525 9.73952 17.215 9.7 16.91V8.43999C9.7 8.4111 9.69431 8.3825 9.68325 8.3558C9.6722 8.32911 9.65599 8.30486 9.63556 8.28443C9.61513 8.264 9.59088 8.2478 9.56419 8.23674C9.5375 8.22569 9.50889 8.22 9.48 8.22H8.5C8.47028 8.21864 8.44059 8.22333 8.41274 8.23378C8.38488 8.24423 8.35943 8.26022 8.33793 8.28079C8.31643 8.30135 8.29932 8.32606 8.28765 8.35343C8.27597 8.38079 8.26997 8.41024 8.27 8.43999V16.91C8.27 17.57 7.59 18.22 6.5 17.67L4.5 16.5C4.46633 16.4762 4.4388 16.4448 4.41967 16.4083C4.40055 16.3717 4.39038 16.3312 4.39 16.29V7.71C4.38859 7.66846 4.39798 7.62728 4.41726 7.59047C4.43654 7.55365 4.46505 7.52248 4.5 7.5L11.94 3.21C11.9734 3.19069 12.0114 3.18052 12.05 3.18052C12.0886 3.18052 12.1266 3.19069 12.16 3.21L19.55 7.5C19.5849 7.52248 19.6135 7.55365 19.6327 7.59047C19.652 7.62728 19.6614 7.66846 19.66 7.71V16.29C19.6596 16.3312 19.6495 16.3717 19.6303 16.4083C19.6112 16.4448 19.5837 16.4762 19.55 16.5L12.11 20.79C12.0747 20.8093 12.0352 20.8193 11.995 20.8193C11.9548 20.8193 11.9153 20.8093 11.88 20.79L10 19.65C9.96692 19.6354 9.93116 19.6279 9.895 19.6279C9.85884 19.6279 9.82308 19.6354 9.79 19.65C9.44359 19.8738 9.06625 20.0456 8.67 20.16C8.55 20.16 8.36 20.27 8.74 20.48L11.22 21.95C11.4568 22.0879 11.726 22.1606 12 22.1606C12.274 22.1606 12.5432 22.0879 12.78 21.95L20.22 17.66C20.4586 17.5199 20.6562 17.3196 20.7931 17.0792C20.93 16.8388 21.0013 16.5667 21 16.29V7.71C20.9996 7.43503 20.9274 7.16494 20.7906 6.92642C20.6538 6.68791 20.4571 6.48922 20.22 6.35L12.78 2.05C12.5415 1.91751 12.2729 1.84863 12 1.85ZM14 8C11.88 8 10.61 8.89 10.61 10.39C10.61 11.89 11.87 12.47 13.91 12.67C16.34 12.91 16.53 13.27 16.53 13.75C16.53 14.58 15.86 14.93 14.3 14.93C12.3 14.93 11.9 14.44 11.75 13.46C11.7388 13.4097 11.711 13.3646 11.6711 13.3319C11.6312 13.2993 11.5815 13.281 11.53 13.28H10.53C10.5016 13.28 10.4734 13.2857 10.4473 13.2969C10.4211 13.3081 10.3975 13.3244 10.3779 13.345C10.3582 13.3656 10.343 13.3899 10.333 13.4166C10.3231 13.4432 10.3186 13.4716 10.32 13.5C10.32 14.74 11 16.24 14.26 16.24C16.61 16.24 17.96 15.31 17.96 13.69C17.96 12.07 16.88 11.69 14.59 11.35C12.3 11.01 12.05 10.89 12.05 10.35C12.05 9.81 12.25 9.35 13.96 9.35C15.46 9.35 16.05 9.68 16.28 10.71C16.2894 10.7585 16.3156 10.8022 16.354 10.8333C16.3924 10.8643 16.4406 10.8809 16.49 10.88H17.49C17.5187 10.8804 17.547 10.8743 17.573 10.8622C17.599 10.8501 17.6219 10.8322 17.64 10.81C17.6623 10.7906 17.6788 10.7653 17.6876 10.7371C17.6965 10.7088 17.6973 10.6787 17.69 10.65C17.56 8.81999 16.38 8 14 8Z" fill="#43853D"/>
</g>
<defs>
<clipPath id="clip0_54_64">
<rect width="24" height="24" fill="white"/>
</clipPath>
</defs>
</svg>
