<?xml version="1.0" encoding="UTF-8"?>
<svg version="1.1" xmlns="http://www.w3.org/2000/svg" width="500" height="500">
<path d="M0 0 C1.69175663 1.30135125 3.35704805 2.63755204 5 4 C11.73273849 8.26954148 20.28279026 9.74865809 28.125 8.4375 C32.73203095 7.32289574 36.68487714 5.2896883 40.7734375 2.92578125 C43.46992799 1.80460889 44.28346631 2.07388015 47 3 C48.82080078 4.10058594 48.82080078 4.10058594 50.6953125 5.484375 C51.75516357 6.25890015 51.75516357 6.25890015 52.83642578 7.04907227 C53.59165527 7.61037842 54.34688477 8.17168457 55.125 8.75 C56.74983907 9.94162572 58.3748437 11.13302571 60 12.32421875 C60.83015625 12.93571777 61.6603125 13.5472168 62.515625 14.17724609 C65.62402218 16.45783703 68.75425752 18.70703708 71.88623047 20.95507812 C79.34668858 26.31163823 86.73540889 31.75424929 94.05126953 37.30688477 C97.38436741 39.87323193 97.38436741 39.87323193 101 42 C101.32184082 44.28268583 101.55588098 46.57792492 101.75 48.875 C102.88183701 59.05426217 106.72313776 67.06367264 114.84765625 73.56640625 C123.55737283 79.36761493 133.06051896 81.52334758 143.40234375 79.5390625 C152.58706912 76.7949442 160.27834144 71.4181252 165 63 C166.94782549 58.48078771 168.57091333 53.89507976 169.65820312 49.09301758 C171.36399228 45.16095011 173.7147221 43.77990312 177.328125 41.80078125 C177.95475037 41.43905319 178.58137573 41.07732513 179.22698975 40.70463562 C181.22536694 39.55666308 183.23705308 38.43468777 185.25 37.3125 C186.588172 36.54785343 187.92542277 35.78159227 189.26171875 35.01367188 C194.77212441 31.86314173 200.29931967 28.79891929 206 26 C212.88727969 35.49431959 219.73605417 45.0125357 226.48193359 54.60791016 C230.07201509 59.70627156 233.71333519 64.76537021 237.375 69.8125 C243.20216924 77.8505478 248.90623013 85.97060093 254.5859375 94.11328125 C257.27313622 97.9650339 259.97691806 101.80457825 262.69165039 105.63696289 C264.64509631 108.39640053 266.5902742 111.16162362 268.53564453 113.92675781 C270.05607611 116.07939286 271.58868983 118.2230636 273.12109375 120.3671875 C274.12288563 121.78611265 275.124205 123.20537155 276.125 124.625 C276.81758911 125.5835791 276.81758911 125.5835791 277.52416992 126.56152344 C280.32494855 130.56459525 282.0069385 134.13458628 283 139 C282.08948588 144.05841177 279.8678564 146.69817137 276 150 C272.5614164 151.14619453 269.91983952 151.12775651 266.29134655 151.13142776 C265.25809848 151.13450672 265.25809848 151.13450672 264.20397672 151.13764787 C261.87873919 151.14333552 259.55356055 151.14185845 257.22831726 151.14044189 C255.55120981 151.14302452 253.87410297 151.14603739 252.19699699 151.1494453 C247.5749151 151.15753059 242.95284872 151.15930572 238.3307606 151.16004276 C233.3510977 151.16189065 228.3714429 151.16943662 223.39178467 151.17617798 C212.4972799 151.18977242 201.60277881 151.19578767 190.70826697 151.20018864 C183.90915139 151.20294904 177.11003724 151.207186 170.31092262 151.21169281 C151.49589852 151.22388665 132.68087556 151.23418592 113.86584759 151.2375679 C112.66114454 151.23778747 111.4564415 151.23800703 110.2152323 151.23823325 C109.00760553 151.23845153 107.79997875 151.23866981 106.55575722 151.2388947 C104.10854193 151.23933817 101.66132663 151.23978473 99.21411133 151.24023438 C98.00020148 151.2404558 96.78629164 151.24067723 95.53559665 151.24090537 C75.85895039 151.24485472 56.18234115 151.26231238 36.50570919 151.2855939 C16.31678222 151.30928929 -3.87212617 151.32176892 -24.06106728 151.32293582 C-35.40159029 151.32385357 -46.74206509 151.32963109 -58.08257484 151.34775543 C-67.73794642 151.36313194 -77.39325487 151.36829137 -87.04863635 151.36001733 C-91.97692156 151.3561022 -96.90507956 151.35708241 -101.83334923 151.37107468 C-106.34309877 151.38376187 -110.85262485 151.38266189 -115.36237385 151.37048396 C-116.99562585 151.36851795 -118.6288934 151.37164689 -120.2621235 151.38032833 C-122.47962938 151.39137113 -124.69633971 151.38396844 -126.91382313 151.3719368 C-128.14628798 151.37253389 -129.37875284 151.37313097 -130.64856511 151.37374616 C-135.16032164 150.87060296 -138.53713432 149.41242203 -141.8125 146.25 C-143.8463686 142.39635423 -144.65412397 139.1710495 -143.36328125 134.88671875 C-140.46729109 128.48108997 -136.18053299 123.05263454 -131.92456055 117.51123047 C-127.97063632 112.35414528 -124.25717441 107.07519773 -120.625 101.6875 C-115.64535584 94.32091897 -110.47205084 87.1291683 -105.16723633 79.99389648 C-101.30776554 74.79616052 -97.53065979 69.54962032 -93.8125 64.25 C-92.83342352 62.86321757 -91.85425801 61.476498 -90.875 60.08984375 C-88.93885947 57.34501038 -87.0272015 54.58483507 -85.125 51.81640625 C-84.1881628 50.4813055 -83.25068912 49.14665108 -82.3125 47.8125 C-81.90942627 47.21276367 -81.50635254 46.61302734 -81.09106445 45.99511719 C-74.8421222 37.21255131 -64.16255592 32.68699803 -55 27.5 C-53.77022581 26.80050257 -52.54057286 26.10079194 -51.31103516 25.40087891 C-42.01713207 20.1166609 -32.69364435 14.88490502 -23.34765625 9.69335938 C-22.39503906 9.16291016 -21.44242187 8.63246094 -20.4609375 8.0859375 C-19.54924805 7.58030273 -18.63755859 7.07466797 -17.69824219 6.55371094 C-14.13595158 4.50246072 -10.69725503 2.26852734 -7.27587891 -0.00927734 C-4.38958538 -1.26572222 -2.95628347 -0.96996375 0 0 Z " fill="#098542" transform="translate(179,280)"/>
<path d="M0 0 C5.26442678 2.83522985 7.92174848 6.23733219 11.0625 11.125 C12.02258461 12.5704441 12.98491267 14.01440001 13.94921875 15.45703125 C14.44728027 16.20549316 14.9453418 16.95395508 15.45849609 17.72509766 C18.00719141 21.48638099 20.69388273 25.14504411 23.375 28.8125 C27.85811082 34.97121088 32.22219478 41.1970533 36.5 47.5 C41.28232507 54.54358397 46.18837435 61.4818515 51.19311523 68.36889648 C56.37040803 75.4944062 61.44968652 82.68653082 66.51611328 89.89111328 C69.00648786 93.43041167 71.50359792 96.96495184 74 100.5 C75.00003195 101.91664412 76.00003196 103.33331078 77 104.75 C77.495 105.45125 77.99 106.1525 78.5 106.875 C95 130.25 95 130.25 96.50048828 132.37573242 C97.49880954 133.78999378 98.4971818 135.20421914 99.49560547 136.6184082 C102.02171322 140.19658007 104.54688502 143.77540608 107.0703125 147.35546875 C111.6959561 153.91633059 116.32821007 160.47189459 121 167 C124.77923531 172.28570291 128.55281435 177.5753693 132.3125 182.875 C132.80427734 183.56464844 133.29605469 184.25429687 133.80273438 184.96484375 C136.20182023 188.35294051 138.5548727 191.76957161 140.82421875 195.24609375 C141.23115967 195.86669678 141.63810059 196.4872998 142.05737305 197.12670898 C143.79740622 200.58469255 143.50054707 203.18332858 143 207 C140.73641693 212.39443934 136.72054102 214.26901638 131.8125 216.9375 C130.10492889 217.89487106 128.39792592 218.85325598 126.69140625 219.8125 C125.77762207 220.32167969 124.86383789 220.83085937 123.92236328 221.35546875 C118.65998849 224.31681851 113.45931079 227.38409723 108.25 230.4375 C105.33890917 232.13932922 102.42725383 233.83992119 99.50976562 235.53076172 C97.94556788 236.44645647 96.39030278 237.37780738 94.84960938 238.33251953 C93.27545924 239.2947291 91.64235122 240.15947732 90 241 C87 240 87 240 85.0625 237.8125 C79.6371023 232.19041115 71.08036059 228.27600949 63.28125 227.89453125 C56.16212091 228.22366907 49.8884081 229.59866918 43.65625 233.09765625 C42 234 42 234 39 235 C39 235.66 39 236.32 39 237 C38.01 237.33 37.02 237.66 36 238 C33.37381965 236.40158883 30.96481481 234.7599742 28.5 232.9375 C27.75097412 232.39601318 27.00194824 231.85452637 26.23022461 231.29663086 C23.81144337 229.54268279 21.40474534 227.77313289 19 226 C17.42839362 224.84634299 15.8567791 223.69269707 14.28515625 222.5390625 C11.9158464 220.79964055 9.55200505 219.05461658 7.2019043 217.28930664 C3.14992692 214.25501195 -0.93207766 211.36384991 -5.203125 208.64453125 C-17.44273898 200.71840648 -17.44273898 200.71840648 -18.98046875 195.9765625 C-18.875 193 -18.875 193 -18.38671875 190.0546875 C-17.61013027 183.92042296 -19.98317411 177.04523569 -23.37890625 171.91796875 C-24.53380133 170.5656557 -25.75985792 169.27459047 -27 168 C-27 167.34 -27 166.68 -27 166 C-27.58394531 165.7215625 -28.16789062 165.443125 -28.76953125 165.15625 C-30.87412351 164.06525296 -32.73680929 162.84135546 -34.6875 161.5 C-41.81276545 157.01861784 -50.16765094 155.8732962 -58.40625 157.46484375 C-67.63624831 159.8720501 -75.73957726 164.9169114 -81 173 C-84.28642751 179.15151816 -85.4285446 184.49554676 -85.140625 191.45703125 C-86.56026665 195.65787995 -90.30063117 196.98326067 -94 199 C-96.1741899 200.25736489 -98.34727556 201.51664023 -100.51953125 202.77734375 C-102.3322301 203.81541296 -104.1469713 204.84983337 -105.9621582 205.88354492 C-107.79950673 206.93009903 -109.63520861 207.97949523 -111.47070312 209.02929688 C-113.84726593 210.38801266 -116.2293952 211.73615595 -118.61572266 213.07763672 C-120.81430675 214.32649339 -122.99757227 215.60285719 -125.16162109 216.91064453 C-126.12277832 217.4776709 -127.08393555 218.04469727 -128.07421875 218.62890625 C-128.90912842 219.13623291 -129.74403809 219.64355957 -130.60424805 220.16625977 C-133 221 -133 221 -135.64941406 220.22924805 C-136.42510742 219.82359619 -137.20080078 219.41794434 -138 219 C-138.83660156 218.57203125 -139.67320312 218.1440625 -140.53515625 217.703125 C-149.57841596 212.5036001 -149.57841596 212.5036001 -152 207 C-153.24511129 200.32167581 -151.12708818 196.77371339 -147.375 191.296875 C-146.58555865 190.19631701 -145.79367741 189.09750704 -145 188 C-144.53335938 187.34708984 -144.06671875 186.69417969 -143.5859375 186.02148438 C-140.87353928 182.22760429 -138.14093314 178.44901385 -135.39453125 174.6796875 C-132.21980153 170.31634906 -129.10116491 165.91581157 -126 161.5 C-121.9042923 155.67097368 -117.75164183 149.88718432 -113.5625 144.125 C-109.07451886 137.94841176 -104.71859575 131.69654031 -100.4375 125.375 C-95.92769578 118.71882922 -91.2440253 112.24086366 -86.37646484 105.84277344 C-82.4907484 100.71388379 -78.82797369 95.45910881 -75.2121582 90.13769531 C-71.74634412 85.04996681 -68.1789695 80.04410914 -64.5625 75.0625 C-60.31696893 69.21314342 -56.10025783 63.34610646 -51.9375 57.4375 C-51.19983398 56.39045898 -51.19983398 56.39045898 -50.44726562 55.32226562 C-48.9640698 53.21538693 -47.48184031 51.10783226 -46 49 C-38.73023038 38.65917259 -31.41410472 28.35564432 -23.984375 18.12890625 C-22.15718651 15.61161338 -20.35134729 13.08291412 -18.578125 10.52734375 C-17.89234375 9.54894531 -17.2065625 8.57054688 -16.5 7.5625 C-15.9328125 6.73878906 -15.365625 5.91507812 -14.78125 5.06640625 C-10.83506433 0.48848471 -5.96739729 -1.3704511 0 0 Z " fill="#01B353" transform="translate(253,64)"/>
<path d="M0 0 C-0.70125 0.66 -1.4025 1.32 -2.125 2 C-10.34795405 10.29303605 -14.24810223 17.86029853 -14.49609375 29.58203125 C-15 32 -15 32 -17.03515625 33.82421875 C-18.00775391 34.40623047 -18.00775391 34.40623047 -19 35 C-19.66 34.67 -20.32 34.34 -21 34 C-20.34 32.68 -19.68 31.36 -19 30 C-18.34 30.33 -17.68 30.66 -17 31 C-17.02320313 30.27554687 -17.04640625 29.55109375 -17.0703125 28.8046875 C-17.17018794 23.45421756 -17.16455748 19.00553918 -15 14 C-14.34 14 -13.68 14 -13 14 C-13 12.68 -13 11.36 -13 10 C-12.34 10 -11.68 10 -11 10 C-11.33 8.02 -11.66 6.04 -12 4 C-11.01 4.33 -10.02 4.66 -9 5 C-8.67 4.01 -8.34 3.02 -8 2 C-4.77208445 -0.1519437 -3.71599191 -0.20086443 0 0 Z " fill="#51C285" transform="translate(182,226)"/>
<path d="M0 0 C0 0.66 0 1.32 0 2 C-2.95481492 4.74375671 -3.77471908 5 -8 5 C-8 5.66 -8 6.32 -8 7 C-12.66647016 11.45548614 -17.83385299 14.25292501 -24 16 C-26.234375 15.56640625 -26.234375 15.56640625 -28 15 C-24.04225382 12.686494 -20.08370463 10.37436553 -16.125 8.0625 C-14.99707031 7.40314453 -13.86914062 6.74378906 -12.70703125 6.06445312 C-11.63066406 5.43603516 -10.55429688 4.80761719 -9.4453125 4.16015625 C-8.45031738 3.57886963 -7.45532227 2.99758301 -6.43017578 2.39868164 C-2.262524 0 -2.262524 0 0 0 Z " fill="#449B6E" transform="translate(155,291)"/>
<path d="M0 0 C0.61328125 1.828125 0.61328125 1.828125 1 4 C-0.8125 6.75 -0.8125 6.75 -3 9 C-3.66 9 -4.32 9 -5 9 C-5.02126953 9.92232422 -5.02126953 9.92232422 -5.04296875 10.86328125 C-5.18857569 13.33072856 -5.40810002 15.5983339 -6 18 C-8.87144347 20.49362196 -10.2061153 21 -14 21 C-12.62416025 18.0884719 -11.04666973 15.51234472 -9.1796875 12.890625 C-8.64472656 12.13652344 -8.10976562 11.38242188 -7.55859375 10.60546875 C-7.00300781 9.82816406 -6.44742188 9.05085938 -5.875 8.25 C-5.31167969 7.45722656 -4.74835938 6.66445312 -4.16796875 5.84765625 C-2.78111545 3.89665924 -1.39172386 1.94752412 0 0 Z " fill="#53C48A" transform="translate(237,71)"/>
<path d="M0 0 C0 0.99 0 1.98 0 3 C-1.2684375 2.67515625 -1.2684375 2.67515625 -2.5625 2.34375 C-12.26745672 -0.03837574 -19.10328489 -0.91818476 -28.703125 2.24609375 C-30.78875637 2.93066323 -32.86471596 3.49556363 -35 4 C-34.67 2.68 -34.34 1.36 -34 0 C-22.9722747 -3.60088989 -11.15986061 -2.59855382 0 0 Z " fill="#47BC7F" transform="translate(218,221)"/>
<path d="M0 0 C2.29949654 1.12300994 3.9825011 2.38600088 6 4 C5.67 4.66 5.34 5.32 5 6 C3 6 1 6 -1 6 C-1.474375 5.484375 -1.94875 4.96875 -2.4375 4.4375 C-2.953125 3.963125 -3.46875 3.48875 -4 3 C-8.127207 3.22309227 -11.40122418 5.0750734 -15 7 C-14.00449135 4.3754772 -13.06036546 3.04971273 -10.875 1.25 C-7.19006489 -0.3521457 -3.92093445 -0.72609897 0 0 Z " fill="#2ABA6E" transform="translate(253,64)"/>
<path d="M0 0 C0.66 0.99 1.32 1.98 2 3 C0.02 3.99 0.02 3.99 -2 5 C-1.67 7.31 -1.34 9.62 -1 12 C-4 13 -4 13 -7 13 C-7 13.99 -7 14.98 -7 16 C-7.66 16 -8.32 16 -9 16 C-9 16.99 -9 17.98 -9 19 C-10.32 19.33 -11.64 19.66 -13 20 C-11.40013936 15.03657693 -8.47460168 11.29801238 -5.375 7.1875 C-4.6015625 6.14819336 -4.6015625 6.14819336 -3.8125 5.08789062 C-2.54657074 3.38826337 -1.27394735 1.69362565 0 0 Z " fill="#339462" transform="translate(56,385)"/>
<path d="M0 0 C-3.7759454 4.1426988 -8.74285047 6.50141906 -13.5625 9.25 C-14.53380859 9.8171875 -15.50511719 10.384375 -16.50585938 10.96875 C-17.43333984 11.49984375 -18.36082031 12.0309375 -19.31640625 12.578125 C-20.16662354 13.06700195 -21.01684082 13.55587891 -21.89282227 14.05957031 C-22.58819092 14.36991211 -23.28355957 14.68025391 -24 15 C-24.66 14.67 -25.32 14.34 -26 14 C-25.67 13.34 -25.34 12.68 -25 12 C-24.01 12 -23.02 12 -22 12 C-22 11.34 -22 10.68 -22 10 C-19 8 -19 8 -15 8 C-15 7.34 -15 6.68 -15 6 C-12 4 -12 4 -8 4 C-8.33 3.01 -8.66 2.02 -9 1 C-5.8035914 -0.06546953 -3.34252724 -0.07427838 0 0 Z " fill="#5EC892" transform="translate(150,267)"/>
<path d="M0 0 C-0.33 1.32 -0.66 2.64 -1 4 C-2.32 4 -3.64 4 -5 4 C-5 4.66 -5 5.32 -5 6 C-6.9375 8.625 -6.9375 8.625 -10 11 C-13.04734164 11.42295879 -15.94457552 11.29955142 -19 11 C-16.22312644 7.75177521 -12.60938618 5.87816944 -8.9375 3.8125 C-8.30005859 3.44447266 -7.66261719 3.07644531 -7.00585938 2.69726562 C-2.25687036 0 -2.25687036 0 0 0 Z " fill="#3B9666" transform="translate(127,307)"/>
<path d="M0 0 C3.95825669 0.15848876 7.48246203 0.77456275 11.33984375 1.65625 C12.57605469 1.9346875 13.81226563 2.213125 15.0859375 2.5 C16.48005859 2.82484375 16.48005859 2.82484375 17.90234375 3.15625 C17.57234375 3.81625 17.24234375 4.47625 16.90234375 5.15625 C16.05414063 4.98867188 15.2059375 4.82109375 14.33203125 4.6484375 C5.19525472 3.06205212 -1.97128085 3.35316671 -11.09765625 5.15625 C-11.09765625 4.16625 -11.09765625 3.17625 -11.09765625 2.15625 C-9.96328125 2.011875 -8.82890625 1.8675 -7.66015625 1.71875 C-4.03548242 1.14643308 -3.52975534 0.17804567 0 0 Z " fill="#4BC285" transform="translate(311.09765625,288.84375)"/>
<path d="M0 0 C-0.99 0.495 -0.99 0.495 -2 1 C-2 1.99 -2 2.98 -2 4 C-3.77065111 4.64633275 -5.54152753 5.2920483 -7.3125 5.9375 C-8.29863281 6.29714844 -9.28476562 6.65679687 -10.30078125 7.02734375 C-12.1920563 7.70885965 -14.09284329 8.3642811 -16 9 C-16 9.66 -16 10.32 -16 11 C-17.65 11 -19.3 11 -21 11 C-17.76865078 7.41231152 -14.09815123 5.05081903 -9.9375 2.6875 C-9.00067383 2.1296582 -9.00067383 2.1296582 -8.04492188 1.56054688 C-3.36486337 -1.12162112 -3.36486337 -1.12162112 0 0 Z " fill="#3B9767" transform="translate(375,314)"/>
<path d="M0 0 C2.475 0.99 2.475 0.99 5 2 C5.16435547 3.51980469 5.16435547 3.51980469 5.33203125 5.0703125 C5.49159893 6.42194461 5.65178833 7.77350343 5.8125 9.125 C5.88275391 9.79015625 5.95300781 10.4553125 6.02539062 11.140625 C6.57928704 15.66041976 7.84359663 19.0180387 10 23 C10 23.66 10 24.32 10 25 C8.35 25.33 6.7 25.66 5 26 C5.33 25.01 5.66 24.02 6 23 C5.71125 22.175 5.4225 21.35 5.125 20.5 C3.82937434 16.46916463 3.62420433 12.79619015 3.44140625 8.5859375 C2.9357681 5.62370336 1.87689454 4.29231387 0 2 C0 1.34 0 0.68 0 0 Z " fill="#53A479" transform="translate(275,320)"/>
<path d="M0 0 C4.81035973 4.3730543 8.59926143 9.46277438 12 15 C12 15.66 12 16.32 12 17 C10.0625 16.625 10.0625 16.625 8 16 C7.67 15.34 7.34 14.68 7 14 C6.01 13.67 5.02 13.34 4 13 C2.64560332 10.29120665 2.93498549 7.99066732 3 5 C2.01 4.67 1.02 4.34 0 4 C0 2.68 0 1.36 0 0 Z " fill="#42C080" transform="translate(288,111)"/>
<path d="M0 0 C0.99 0.33 1.98 0.66 3 1 C3 1.99 3 2.98 3 4 C3.66 4 4.32 4 5 4 C5 8.62 5 13.24 5 18 C5.66 18.33 6.32 18.66 7 19 C6.67 20.98 6.34 22.96 6 25 C5.01 24.67 4.02 24.34 3 24 C3.03480469 23.27296875 3.06960937 22.5459375 3.10546875 21.796875 C3.31357647 14.06715951 2.20363925 7.39793177 0 0 Z " fill="#47BF82" transform="translate(232,239)"/>
<path d="M0 0 C0.33 0 0.66 0 1 0 C0.67 2.31 0.34 4.62 0 7 C-0.99 7.33 -1.98 7.66 -3 8 C-3 8.66 -3 9.32 -3 10 C-3.66 10 -4.32 10 -5 10 C-5.061875 10.78375 -5.12375 11.5675 -5.1875 12.375 C-5.5896875 13.674375 -5.5896875 13.674375 -6 15 C-8.5625 16.3125 -8.5625 16.3125 -11 17 C-9.52818439 12.66498025 -7.2017333 9.28143997 -4.4375 5.6875 C-4.02564453 5.13771484 -3.61378906 4.58792969 -3.18945312 4.02148438 C-2.1550682 2.65866955 -1.08087744 1.32624296 0 0 Z " fill="#4CC384" transform="translate(158,182)"/>
<path d="M0 0 C2 2 2 2 2.3125 5.8125 C2.20133698 9.64762427 1.50161881 11.98080489 -1 15 C-3.5 16.875 -3.5 16.875 -6 18 C-6.99 17.67 -7.98 17.34 -9 17 C-8.34 15.68 -7.68 14.36 -7 13 C-5.02 13 -3.04 13 -1 13 C-0.67 8.71 -0.34 4.42 0 0 Z " fill="#4BC183" transform="translate(394,261)"/>
<path d="M0 0 C3.65528338 0.58225753 6.46152146 1.56757569 9.6875 3.375 C10.83798828 4.00535156 10.83798828 4.00535156 12.01171875 4.6484375 C14 6 14 6 16 9 C15.67 9.99 15.34 10.98 15 12 C12.49618432 10.19272453 9.99761453 8.37833327 7.5 6.5625 C6.78457031 6.04623047 6.06914062 5.52996094 5.33203125 4.99804688 C4.65527344 4.50498047 3.97851562 4.01191406 3.28125 3.50390625 C2.65283203 3.04830322 2.02441406 2.5927002 1.37695312 2.12329102 C0.92255859 1.75260498 0.46816406 1.38191895 0 1 C0 0.67 0 0.34 0 0 Z " fill="#47C182" transform="translate(253,275)"/>
<path d="M0 0 C0.928125 0.165 1.85625 0.33 2.8125 0.5 C10.20657057 1.54986803 17.6619275 1.30454622 25 0 C24 2 24 2 21.0625 3.125 C13.87492125 4.98461996 6.94850389 4.41687092 0 2 C0 1.34 0 0.68 0 0 Z " fill="#44966B" transform="translate(302,359)"/>
<path d="M0 0 C0.625 1.8125 0.625 1.8125 1 4 C0.01 5.485 0.01 5.485 -1 7 C-1.66 7 -2.32 7 -3 7 C-3.0825 7.556875 -3.165 8.11375 -3.25 8.6875 C-4.24389778 11.75201816 -5.83162599 13.64029887 -8 16 C-8.99 16.33 -9.98 16.66 -11 17 C-9.52869627 12.6426774 -7.16919385 9.28065866 -4.375 5.6875 C-3.95476562 5.13771484 -3.53453125 4.58792969 -3.1015625 4.02148438 C-2.07279961 2.67707832 -1.0370991 1.33798587 0 0 Z " fill="#4DC286" transform="translate(190,137)"/>
<path d="M0 0 C1.98 0 3.96 0 6 0 C6.33 0.99 6.66 1.98 7 3 C7.969375 3.268125 8.93875 3.53625 9.9375 3.8125 C10.948125 4.204375 11.95875 4.59625 13 5 C14.375 8.125 14.375 8.125 15 11 C9.66262898 8.10892403 4.64928097 4.9247177 0 1 C0 0.67 0 0.34 0 0 Z " fill="#37BC78" transform="translate(238,264)"/>
<path d="M0 0 C1 4 1 4 -0.58203125 6.796875 C-1.31808594 7.77140625 -2.05414063 8.7459375 -2.8125 9.75 C-3.90498047 11.22726563 -3.90498047 11.22726563 -5.01953125 12.734375 C-5.67308594 13.48203125 -6.32664062 14.2296875 -7 15 C-7.66 15 -8.32 15 -9 15 C-9 15.66 -9 16.32 -9 17 C-9.66 16.67 -10.32 16.34 -11 16 C-7.37 10.72 -3.74 5.44 0 0 Z " fill="#4EC489" transform="translate(116,241)"/>
<path d="M0 0 C1 2 1 2 0.3125 4.5 C-1 7 -1 7 -3.0625 7.9375 C-3.701875 8.288125 -4.34125 8.63875 -5 9 C-5.81584568 12.05908413 -5.81584568 12.05908413 -6 15 C-7.65 15.33 -9.3 15.66 -11 16 C-9.92044741 14.26847042 -8.83617488 12.53988316 -7.75 10.8125 C-7.14671875 9.84957031 -6.5434375 8.88664062 -5.921875 7.89453125 C-4.08362455 5.12594673 -2.11574051 2.56042049 0 0 Z " fill="#5AA67E" transform="translate(79,353)"/>
<path d="M0 0 C0.94875 0.04125 1.8975 0.0825 2.875 0.125 C0.25721206 3.0802728 -2.80083335 4.88332727 -6.1875 6.875 C-7.25097656 7.50921875 -8.31445312 8.1434375 -9.41015625 8.796875 C-10.30605469 9.23515625 -11.20195312 9.6734375 -12.125 10.125 C-12.785 9.795 -13.445 9.465 -14.125 9.125 C-13.125 6.125 -13.125 6.125 -10.125 4.125 C-7.4375 4 -7.4375 4 -5.125 4.125 C-5.125 3.465 -5.125 2.805 -5.125 2.125 C-3.125 0.125 -3.125 0.125 0 0 Z " fill="#53C489" transform="translate(383.125,278.875)"/>
<path d="M0 0 C-0.721875 0.70125 -1.44375 1.4025 -2.1875 2.125 C-4.99823813 4.92770745 -7.49516226 7.92262792 -10 11 C-11.0625 9.1875 -11.0625 9.1875 -12 7 C-11.67 6.01 -11.34 5.02 -11 4 C-10.34 4.33 -9.68 4.66 -9 5 C-8.67 4.01 -8.34 3.02 -8 2 C-4.77208445 -0.1519437 -3.71599191 -0.20086443 0 0 Z " fill="#2FB970" transform="translate(182,226)"/>
<path d="M0 0 C3.19249477 2.96647745 5.4592987 6.04963636 7.75 9.75 C8.36359375 10.73484375 8.9771875 11.7196875 9.609375 12.734375 C10.29773438 13.85585938 10.29773438 13.85585938 11 15 C9.68 14.67 8.36 14.34 7 14 C7 13.01 7 12.02 7 11 C6.01 10.67 5.02 10.34 4 10 C1.1165659 8.00377639 0.97713066 6.87733716 0.3125 3.3125 C0.209375 2.219375 0.10625 1.12625 0 0 Z " fill="#4FA177" transform="translate(443,389)"/>
<path d="M0 0 C1 4 1 4 0.22265625 5.921875 C-0.8515625 7.61458333 -1.92578125 9.30729167 -3 11 C-3.66 11 -4.32 11 -5 11 C-5.33 11.99 -5.66 12.98 -6 14 C-6.66 14 -7.32 14 -8 14 C-8 14.66 -8 15.32 -8 16 C-8.66 15.67 -9.32 15.34 -10 15 C-5.05 7.575 -5.05 7.575 0 0 Z " fill="#4E9E75" transform="translate(67,369)"/>
<path d="M0 0 C3.26739182 1.38864152 5.14890832 3.44271212 7.5 6.0625 C6.51 6.3925 5.52 6.7225 4.5 7.0625 C4.17 6.4025 3.84 5.7425 3.5 5.0625 C0.91394668 4.5941735 0.91394668 4.5941735 -2.0625 4.4375 C-3.07441406 4.36273438 -4.08632812 4.28796875 -5.12890625 4.2109375 C-6.30259766 4.13746094 -6.30259766 4.13746094 -7.5 4.0625 C-3.27821012 0.08195525 -3.27821012 0.08195525 0 0 Z " fill="#4A9F71" transform="translate(176.5,278.9375)"/>
<path d="M0 0 C3.51973101 3.25901019 6.52760275 6.8860931 9 11 C9 11.66 9 12.32 9 13 C7.35 12.67 5.7 12.34 4 12 C4 10.68 4 9.36 4 8 C3.34 8 2.68 8 2 8 C2 7.01 2 6.02 2 5 C1.34 5 0.68 5 0 5 C0 3.35 0 1.7 0 0 Z " fill="#45BD7F" transform="translate(385,248)"/>
<path d="M0 0 C0.33 0 0.66 0 1 0 C0.67 2.31 0.34 4.62 0 7 C-0.66 6.67 -1.32 6.34 -2 6 C-2.4125 7.134375 -2.825 8.26875 -3.25 9.4375 C-5 13 -5 13 -7.1875 13.9375 C-7.785625 13.958125 -8.38375 13.97875 -9 14 C-7.45315734 10.67312232 -5.54045021 7.75296022 -3.4375 4.75 C-2.81746094 3.85796875 -2.19742188 2.9659375 -1.55859375 2.046875 C-1.04425781 1.37140625 -0.52992188 0.6959375 0 0 Z " fill="#54C689" transform="translate(222,92)"/>
<path d="M0 0 C4.87305969 4.29975855 7.8200442 9.37224317 11 15 C9.078125 14.66015625 9.078125 14.66015625 7 14 C5.75 11.4375 5.75 11.4375 5 9 C4.34 9 3.68 9 3 9 C2.67 7.68 2.34 6.36 2 5 C1.01 5.495 1.01 5.495 0 6 C0 4.02 0 2.04 0 0 Z " fill="#5AA680" transform="translate(421,358)"/>
<path d="M0 0 C2.93200474 2.85276137 5.64315404 5.65079784 8 9 C7.67 9.66 7.34 10.32 7 11 C6.38125 10.67 5.7625 10.34 5.125 10 C3.08981656 8.85806765 3.08981656 8.85806765 1 9 C0.67 6.03 0.34 3.06 0 0 Z " fill="#48A073" transform="translate(435,378)"/>
<path d="M0 0 C0.33 0 0.66 0 1 0 C1.27522305 6.88057626 0.9341561 12.09876585 -3 18 C-3.66 18 -4.32 18 -5 18 C-4.80664062 17.45472656 -4.61328125 16.90945313 -4.4140625 16.34765625 C-2.55239547 10.9561948 -1.12344334 5.59078274 0 0 Z " fill="#57A47B" transform="translate(349,327)"/>
<path d="M0 0 C1.32 0 2.64 0 4 0 C4 0.66 4 1.32 4 2 C6.31 2.33 8.62 2.66 11 3 C11.66 4.98 12.32 6.96 13 9 C9.91220974 7.53400783 7.09532795 5.82973607 4.25 3.9375 C3.45078125 3.41027344 2.6515625 2.88304687 1.828125 2.33984375 C1.22484375 1.89769531 0.6215625 1.45554687 0 1 C0 0.67 0 0.34 0 0 Z " fill="#51C288" transform="translate(269,287)"/>
<path d="M0 0 C0.99127829 2.67645138 1.15579782 3.66091063 -0.0625 6.3125 C-1.35972215 10.0312035 -0.17694667 12.33069569 1 16 C0.67 16.66 0.34 17.32 0 18 C-2.79385411 14.27486119 -3.45908751 11.46656688 -3.3046875 6.9375 C-2.86858343 4.16432542 -1.66616677 2.22155569 0 0 Z " fill="#5FC891" transform="translate(104,258)"/>
<path d="M0 0 C0.33 1.32 0.66 2.64 1 4 C0.01 4.33 -0.98 4.66 -2 5 C-2.0825 5.7425 -2.165 6.485 -2.25 7.25 C-3.14809799 10.54302595 -4.38416074 11.85976788 -7 14 C-7.66 14 -8.32 14 -9 14 C-7.45158425 10.65291949 -5.50894136 7.75332488 -3.375 4.75 C-2.74335938 3.85796875 -2.11171875 2.9659375 -1.4609375 2.046875 C-0.73777344 1.03367188 -0.73777344 1.03367188 0 0 Z " fill="#57C48C" transform="translate(173,161)"/>
<path d="M0 0 C3.9252025 3.70090521 6.94580156 7.54959656 10 12 C9.67 12.66 9.34 13.32 9 14 C7.2925002 12.71937515 5.62626404 11.38232443 4 10 C4 9.34 4 8.68 4 8 C3.34 8 2.68 8 2 8 C1.34 5.36 0.68 2.72 0 0 Z " fill="#56C78D" transform="translate(312,145)"/>
<path d="M0 0 C0.33 0.66 0.66 1.32 1 2 C0.0625 4.625 0.0625 4.625 -1 7 C-1.66 7 -2.32 7 -3 7 C-3.061875 7.598125 -3.12375 8.19625 -3.1875 8.8125 C-4.3236757 11.87143458 -6.17330142 12.55041099 -9 14 C-7.45158425 10.65291949 -5.50894136 7.75332488 -3.375 4.75 C-2.74335938 3.85796875 -2.11171875 2.9659375 -1.4609375 2.046875 C-0.73777344 1.03367187 -0.73777344 1.03367187 0 0 Z " fill="#54C68C" transform="translate(205,116)"/>
<path d="M0 0 C1.32 0 2.64 0 4 0 C3.67 1.65 3.34 3.3 3 5 C1.02 5.66 -0.96 6.32 -3 7 C-3 3.46013806 -2.41847197 2.50484597 0 0 Z " fill="#30BC73" transform="translate(227,85)"/>
<path d="M0 0 C0.66 0.66 1.32 1.32 2 2 C1.01 2.33 0.02 2.66 -1 3 C-1 2.34 -1 1.68 -1 1 C-6.17930997 2.24303439 -9.70166639 3.85487785 -14 7 C-14 6.01 -14 5.02 -14 4 C-9.26963519 -0.13906921 -6.01104118 -0.60110412 0 0 Z " fill="#5AC68C" transform="translate(253,64)"/>
<path d="M0 0 C1.24546405 2.49092811 0.7767578 3.41080733 0 6 C-0.66 6 -1.32 6 -2 6 C-2 6.99 -2 7.98 -2 9 C-2.66 9 -3.32 9 -4 9 C-4 9.99 -4 10.98 -4 12 C-5.32 12.33 -6.64 12.66 -8 13 C-6.40956621 7.91061189 -3.2553049 4.12543357 0 0 Z " fill="#58A680" transform="translate(51,392)"/>
<path d="M0 0 C2 3 2 3 1.9375 6.375 C0.84501759 10.59926533 -0.71402978 12.21956366 -4 15 C-4.33 14.01 -4.66 13.02 -5 12 C-4.01 12 -3.02 12 -2 12 C-1.34 8.04 -0.68 4.08 0 0 Z " fill="#58A17B" transform="translate(460,414)"/>
<path d="M0 0 C4 5 4 5 8 10 C7.67 10.66 7.34 11.32 7 12 C4.525 11.01 4.525 11.01 2 10 C2 8.02 2 6.04 2 4 C1.01 3.67 0.02 3.34 -1 3 C-0.67 2.01 -0.34 1.02 0 0 Z " fill="#54A47B" transform="translate(410,342)"/>
<path d="M0 0 C4.04420651 1.77945087 7.46078487 4.39529673 11 7 C9.68 7.33 8.36 7.66 7 8 C7 7.34 7 6.68 7 6 C4.03 5.505 4.03 5.505 1 5 C0.67 3.35 0.34 1.7 0 0 Z " fill="#58A77C" transform="translate(244,297)"/>
<path d="M0 0 C0.99 0.66 1.98 1.32 3 2 C2.34 3.32 1.68 4.64 1 6 C0.01 5.67 -0.98 5.34 -2 5 C-2.33 6.65 -2.66 8.3 -3 10 C-3.99 10 -4.98 10 -6 10 C-4.34832443 6.4213696 -2.21713508 3.25179812 0 0 Z " fill="#489D70" transform="translate(96,329)"/>
<path d="M0 0 C-0.33 1.32 -0.66 2.64 -1 4 C-2.32 4 -3.64 4 -5 4 C-5 4.66 -5 5.32 -5 6 C-6.98 6 -8.96 6 -11 6 C-3.8 0 -3.8 0 0 0 Z " fill="#52A278" transform="translate(127,307)"/>
<path d="M0 0 C2.40072955 2.88087546 4.47291037 5.56404834 6 9 C5.34 9.66 4.68 10.32 4 11 C1.29727467 8.12835434 0.05208163 6.69008159 -0.25 2.6875 C-0.1675 1.800625 -0.085 0.91375 0 0 Z " fill="#44C182" transform="translate(345,191)"/>
<path d="M0 0 C2.64 0.33 5.28 0.66 8 1 C8.33 2.32 8.66 3.64 9 5 C10.32 5.33 11.64 5.66 13 6 C11.296875 6.6796875 11.296875 6.6796875 9 7 C6.640625 5.8203125 6.640625 5.8203125 4.25 4.125 C3.45078125 3.57070313 2.6515625 3.01640625 1.828125 2.4453125 C1.22484375 1.96835937 0.6215625 1.49140625 0 1 C0 0.67 0 0.34 0 0 Z " fill="#5AC88F" transform="translate(328,294)"/>
<path d="M0 0 C2.93200474 2.85276137 5.64315404 5.65079784 8 9 C7.67 9.66 7.34 10.32 7 11 C4.625 10 4.625 10 2 8 C0.95231959 5.33078407 0.51315454 2.84567517 0 0 Z " fill="#5BC58F" transform="translate(331,172)"/>
<path d="M0 0 C1.0326802 2.78823655 1.04509293 3.8677274 0.0625 6.75 C-0.288125 7.4925 -0.63875 8.235 -1 9 C-1.66 8.67 -2.32 8.34 -3 8 C-3.33 8.66 -3.66 9.32 -4 10 C-4.66 10 -5.32 10 -6 10 C-4.34832443 6.4213696 -2.21713508 3.25179812 0 0 Z " fill="#49C484" transform="translate(212,106)"/>
<path d="M0 0 C-4.58031088 2.99481865 -4.58031088 2.99481865 -7 4 C-9.4375 3.25 -9.4375 3.25 -11 2 C-7.72338241 -1.27661759 -4.29690696 -1.43230232 0 0 Z " fill="#42BE7E" transform="translate(357,297)"/>
<path d="M0 0 C2.96404505 2.80804268 5.44499019 5.18315774 7 9 C5.35 9 3.7 9 2 9 C0.50178941 5.62902617 0 3.79557881 0 0 Z " fill="#45C180" transform="translate(355,206)"/>
<path d="M0 0 C0.85178626 2.38500154 1.09806909 3.6665651 0.375 6.125 C-1.41247034 8.56245955 -3.1632534 9.10418528 -6 10 C-4.6302836 6.00499382 -2.74277578 3.19990508 0 0 Z " fill="#4FC187" transform="translate(141,206)"/>
<path d="M0 0 C3.39417765 3.12621626 5.6062718 5.56541027 7 10 C2.37837838 8.54054054 2.37837838 8.54054054 0.6875 6.125 C0 4 0 4 0 0 Z " fill="#54C58D" transform="translate(305,135)"/>
<path d="M0 0 C2.97 1.65 5.94 3.3 9 5 C9 5.33 9 5.66 9 6 C6.03 6 3.06 6 0 6 C0 4.02 0 2.04 0 0 Z " fill="#489F71" transform="translate(291,352)"/>
<path d="M0 0 C0.33 0.66 0.66 1.32 1 2 C0.06421005 4.35981813 -0.93347808 6.69631264 -2 9 C-3.32 8.67 -4.64 8.34 -6 8 C-4.02 5.36 -2.04 2.72 0 0 Z " fill="#439A6D" transform="translate(103,320)"/>
<path d="M0 0 C0.60546875 1.8359375 0.60546875 1.8359375 1 4 C-1.19434113 7.41341953 -3.20764006 9.51014431 -7 11 C-5.22054913 6.95579349 -2.60470327 3.53921513 0 0 Z " fill="#53C489" transform="translate(127,226)"/>
<path d="M0 0 C1.21333397 2.42666795 1 4.33499722 1 7 C-0.98 7.66 -2.96 8.32 -5 9 C-3.7508258 5.54074837 -2.32472205 2.85306797 0 0 Z " fill="#4C9F73" transform="translate(42,405)"/>
<path d="M0 0 C0.66 0.99 1.32 1.98 2 3 C1 4 1 4 -1.5625 4.0625 C-2.7690625 4.0315625 -2.7690625 4.0315625 -4 4 C-4 4.66 -4 5.32 -4 6 C-5.65 6 -7.3 6 -9 6 C-6.11964908 3.75972706 -3.15133488 1.83827868 0 0 Z " fill="#54A57A" transform="translate(336,353)"/>
<path d="M0 0 C0 0.66 0 1.32 0 2 C-1.65 2.66 -3.3 3.32 -5 4 C-5 4.66 -5 5.32 -5 6 C-6.65 6 -8.3 6 -10 6 C-4.4 0 -4.4 0 0 0 Z " fill="#54A47A" transform="translate(364,319)"/>
<path d="M0 0 C0 0.66 0 1.32 0 2 C-2.95481492 4.74375671 -3.77471908 5 -8 5 C-8.33 5.66 -8.66 6.32 -9 7 C-9.66 6.34 -10.32 5.68 -11 5 C-9.54462432 4.16151196 -8.08559627 3.32936066 -6.625 2.5 C-5.81289062 2.0359375 -5.00078125 1.571875 -4.1640625 1.09375 C-2 0 -2 0 0 0 Z " fill="#5FA983" transform="translate(155,291)"/>
<path d="M0 0 C-5.14285714 4.42857143 -5.14285714 4.42857143 -9 5 C-9.33 4.01 -9.66 3.02 -10 2 C-6.3558226 -0.4294516 -4.28758728 -0.16179575 0 0 Z " fill="#40BE7C" transform="translate(369,289)"/>
<path d="M0 0 C-2.35277269 2.72426311 -4.62496331 3.8141763 -8 5 C-8.33 3.68 -8.66 2.36 -9 1 C-5.8035914 -0.06546953 -3.34252724 -0.07427838 0 0 Z " fill="#45C07D" transform="translate(150,267)"/>
<path d="M0 0 C4.875 4.75 4.875 4.75 6 7 C3.69 7 1.38 7 -1 7 C-0.67 4.69 -0.34 2.38 0 0 Z " fill="#3F9767" transform="translate(285,345)"/>
<path d="M0 0 C0.66 0.33 1.32 0.66 2 1 C1.67 2.65 1.34 4.3 1 6 C-0.32 6.33 -1.64 6.66 -3 7 C-3.33 6.01 -3.66 5.02 -4 4 C-3.01 4 -2.02 4 -1 4 C-0.67 2.68 -0.34 1.36 0 0 Z " fill="#22B867" transform="translate(160,256)"/>
<path d="M0 0 C2.97 0 5.94 0 9 0 C6.1709277 2.8290723 5.61855575 3.37611108 2 4 C1.34 2.68 0.68 1.36 0 0 Z " fill="#5CC890" transform="translate(339,301)"/>
<path d="M0 0 C3.63 0.33 7.26 0.66 11 1 C9.68 1.99 8.36 2.98 7 4 C3.86240027 3.17824769 2.29744125 2.29744125 0 0 Z " fill="#5FC992" transform="translate(113,281)"/>
<path d="M0 0 C4.25177923 0.47241991 6.29969203 2.84964071 9 6 C9 6.99 9 7.98 9 9 C7 7.625 7 7.625 5 6 C5 5.34 5 4.68 5 4 C4.360625 3.71125 3.72125 3.4225 3.0625 3.125 C1 2 1 2 0 0 Z " fill="#72D0A1" transform="translate(221,226)"/>
<path d="M0 0 C0.33 0.66 0.66 1.32 1 2 C-1.16798732 7.4770206 -1.16798732 7.4770206 -4.1875 9.375 C-4.785625 9.58125 -5.38375 9.7875 -6 10 C-4.6302836 6.00499382 -2.74277578 3.19990508 0 0 Z " fill="#58C992" transform="translate(134,216)"/>
<path d="M0 0 C1.70884005 1.62339805 3.37446717 3.29319053 5 5 C5 5.66 5 6.32 5 7 C4.01 7.33 3.02 7.66 2 8 C-0.1519437 4.77208445 -0.20086443 3.71599191 0 0 Z " fill="#4BC585" transform="translate(273,90)"/>
<path d="M0 0 C1.70884005 1.62339805 3.37446717 3.29319053 5 5 C5 5.66 5 6.32 5 7 C3.68 7 2.36 7 1 7 C0.67 4.69 0.34 2.38 0 0 Z " fill="#4C9D71" transform="translate(389,313)"/>
<path d="M0 0 C3.465 1.485 3.465 1.485 7 3 C6.67 3.66 6.34 4.32 6 5 C4.68 5 3.36 5 2 5 C1.34 3.35 0.68 1.7 0 0 Z " fill="#36905C" transform="translate(252,304)"/>
<path d="M0 0 C0.33 0.66 0.66 1.32 1 2 C-0.375 4 -0.375 4 -2 6 C-2.66 6 -3.32 6 -4 6 C-4 6.66 -4 7.32 -4 8 C-4.66 7.67 -5.32 7.34 -6 7 C-2.25 1.125 -2.25 1.125 0 0 Z " fill="#42BD7E" transform="translate(111,250)"/>
<path d="M0 0 C0.33 0 0.66 0 1 0 C1 1.65 1 3.3 1 5 C0.34 5 -0.32 5 -1 5 C-1.33 5.99 -1.66 6.98 -2 8 C-2.66 7.67 -3.32 7.34 -4 7 C-2.79618552 4.50638429 -1.54571278 2.31856917 0 0 Z " fill="#49C386" transform="translate(146,199)"/>
<path d="M0 0 C-4.75 4.875 -4.75 4.875 -7 6 C-7.33 4.68 -7.66 3.36 -8 2 C-4.77208445 -0.1519437 -3.71599191 -0.20086443 0 0 Z " fill="#55C88B" transform="translate(182,226)"/>
<path d="M0 0 C0.33 0.99 0.66 1.98 1 3 C0.01 4.485 0.01 4.485 -1 6 C-1.66 6 -2.32 6 -3 6 C-3 6.66 -3 7.32 -3 8 C-3.66 7.67 -4.32 7.34 -5 7 C-3.35 4.69 -1.7 2.38 0 0 Z " fill="#5EA881" transform="translate(62,377)"/>
<path d="M0 0 C0.99 0.33 1.98 0.66 3 1 C2.34 2.32 1.68 3.64 1 5 C-0.32 4.67 -1.64 4.34 -3 4 C-2.01 2.68 -1.02 1.36 0 0 Z " fill="#479E70" transform="translate(71,364)"/>
<path d="M0 0 C3 3.875 3 3.875 3 5 C1.35 5 -0.3 5 -2 5 C-2 2 -2 2 0 0 Z " fill="#379460" transform="translate(340,349)"/>
<path d="M0 0 C1.65 1.65 3.3 3.3 5 5 C4.67 5.66 4.34 6.32 4 7 C2.35 6.01 0.7 5.02 -1 4 C-0.67 2.68 -0.34 1.36 0 0 Z " fill="#55A57D" transform="translate(394,320)"/>
<path d="M0 0 C1.98 0 3.96 0 6 0 C6.33 1.65 6.66 3.3 7 5 C4.11562221 3.70700306 2.12780579 2.34058637 0 0 Z " fill="#56C78C" transform="translate(238,264)"/>
<path d="M0 0 C1.37562854 1.28965176 2.70766393 2.62689293 4 4 C4 4.66 4 5.32 4 6 C2.35 5.67 0.7 5.34 -1 5 C-0.67 3.35 -0.34 1.7 0 0 Z " fill="#46C383" transform="translate(339,183)"/>
<path d="M0 0 C0.33 0 0.66 0 1 0 C1 1.65 1 3.3 1 5 C-0.65 5.66 -2.3 6.32 -4 7 C-2.79618552 4.50638429 -1.54571278 2.31856917 0 0 Z " fill="#58C68C" transform="translate(163,175)"/>
<path d="M0 0 C0.66 0.99 1.32 1.98 2 3 C0.35 4.32 -1.3 5.64 -3 7 C-3 3.48283697 -2.17554415 2.62878252 0 0 Z " fill="#5DC994" transform="translate(183,147)"/>
</svg>
