<svg width="23" height="24" viewBox="0 0 23 24" fill="none" xmlns="http://www.w3.org/2000/svg">
<g id="Frame" clip-path="url(#clip0_58_136)">
<g id="comp_x5F_267-python">
<g id="Group">
<g id="Group_2">
<g id="Group_3">
<path id="Vector" d="M9.09399 11.2619H14.0184C15.3879 11.2619 16.4807 10.1322 16.4807 8.75812V4.0596C16.4807 2.72249 15.3556 1.7219 14.0184 1.49596C12.3677 1.2239 10.5741 1.23773 9.09399 1.50051C7.00983 1.86941 6.63178 2.63948 6.63178 4.06424V5.06985H11.5608V6.56793H4.78275C3.3488 6.56793 2.09452 7.43015 1.70264 9.06707C1.25077 10.9437 1.23239 12.1149 1.70264 14.0745C2.05313 15.5316 2.88764 16.5736 4.32164 16.5736H6.01388V14.3236C6.01388 12.6959 7.42022 11.2619 9.09399 11.2619Z" fill="#347AB4"/>
<g id="Group_4">
<path id="Vector_2" d="M6.01388 17.0424H4.32164C2.78217 17.0424 1.69022 16.0273 1.24688 14.1841C0.771282 12.2024 0.771329 10.9324 1.24688 8.95731C1.4588 8.07208 1.91452 7.33736 2.56463 6.83322C3.18384 6.35298 3.95086 6.09915 4.7827 6.09915H11.092V5.53858H6.63178C6.37289 5.53858 6.16303 5.32872 6.16303 5.06983V4.06422C6.16303 3.41012 6.22973 2.66317 6.72455 2.08244C7.16761 1.5624 7.87317 1.24056 9.01233 1.03895C9.78633 0.901514 10.6589 0.828857 11.5356 0.828857C12.41 0.828857 13.271 0.897717 14.0947 1.03347C14.8608 1.16294 15.5657 1.51623 16.0815 2.02858C16.6412 2.58475 16.9495 3.30606 16.9495 4.05962V8.75814C16.9495 10.3972 15.6346 11.7307 14.0185 11.7307H9.09398C7.70288 11.7307 6.48263 12.9423 6.48263 14.3236V16.5737C6.48263 16.8325 6.27277 17.0424 6.01388 17.0424ZM4.78275 7.03665C3.46027 7.03665 2.47922 7.83648 2.1585 9.17617C1.71197 11.0307 1.71202 12.1047 2.15845 13.9652C2.3932 14.9411 2.95913 16.1049 4.32164 16.1049H5.54513V14.3236C5.54513 13.4206 5.92758 12.5195 6.59447 11.8512C7.27542 11.1689 8.16309 10.7931 9.09398 10.7931H14.0184C15.1177 10.7931 16.0119 9.88019 16.0119 8.75809V4.05958C16.0119 2.90978 14.9698 2.13208 13.9403 1.95812C13.1687 1.83095 12.3591 1.76631 11.5355 1.76631C10.7129 1.76631 9.89695 1.834 9.17597 1.96201C7.30528 2.29314 7.10058 2.88494 7.10058 4.06422V4.60108H11.5608C11.8197 4.60108 12.0296 4.81094 12.0296 5.06983V6.5679C12.0296 6.8268 11.8197 7.03665 11.5608 7.03665H4.78275Z" fill="#275C87"/>
</g>
</g>
<g id="Group_5">
<path id="Vector_3" d="M22.2645 9.81433C21.9094 8.38956 21.2363 7.31519 19.8023 7.31519H17.9534V9.50078C17.9534 11.1976 16.5147 12.6269 14.8732 12.6269H9.94876C8.60232 12.6269 7.48651 13.7798 7.48651 15.1307V19.8247C7.48651 21.1617 8.64845 21.9456 9.94876 22.3284C11.5072 22.7848 13.0057 22.8679 14.8732 22.3284C16.1136 21.9686 17.3355 21.2448 17.3355 19.8247V18.8404H12.4157V17.3209H19.8022C21.2363 17.3209 21.7665 16.3203 22.2644 14.8218C22.7809 13.2771 22.7579 11.7924 22.2645 9.81433Z" fill="#FFCA1D"/>
<g id="Group_6">
<path id="Vector_4" d="M12.3952 23.1713C11.5633 23.1713 10.72 23.0427 9.81704 22.7782C8.01165 22.2467 7.01776 21.1978 7.01776 19.8246V15.1307C7.01776 13.5194 8.35998 12.1582 9.94876 12.1582H14.8732C16.2643 12.1582 17.4846 10.9164 17.4846 9.50078V7.31519C17.4846 7.05629 17.6945 6.84644 17.9533 6.84644H19.8022C20.612 6.84644 21.2809 7.14076 21.7903 7.72131C22.1997 8.18795 22.5036 8.83553 22.7192 9.70094C23.2438 11.8039 23.2408 13.3798 22.709 14.9704C22.2351 16.3965 21.6201 17.7896 19.8022 17.7896H12.8844V18.3717H17.3354C17.5943 18.3717 17.8042 18.5816 17.8042 18.8404V19.8247C17.8042 20.8017 17.3183 22.1073 15.0037 22.7786C14.0889 23.0429 13.2358 23.1713 12.3952 23.1713ZM9.94876 13.0957C8.86815 13.0957 7.95526 14.0276 7.95526 15.1307V19.8247C7.95526 21.0673 9.28721 21.645 10.0812 21.8787C10.908 22.1209 11.6435 22.2338 12.3952 22.2338C13.1465 22.2338 13.9146 22.1174 14.7431 21.878C16.1521 21.4694 16.8668 20.7785 16.8668 19.8246V19.3091H12.4157C12.1569 19.3091 11.9469 19.0992 11.9469 18.8404V17.3208C11.9469 17.062 12.1569 16.8521 12.4157 16.8521H19.8023C20.7936 16.8521 21.2649 16.3432 21.8196 14.6739C22.2972 13.2453 22.2943 11.8705 21.8096 9.92772C21.4401 8.44501 20.821 7.78389 19.8023 7.78389H18.4221V9.50073C18.4221 11.4494 16.7969 13.0956 14.8732 13.0956H9.94876V13.0957Z" fill="#BF9816"/>
</g>
</g>
<path id="Vector_5" d="M8.78502 4.19976C8.29382 4.19976 7.89557 3.79706 7.89557 3.30145C7.89998 2.80138 8.29382 2.39868 8.78502 2.39868C9.27187 2.39868 9.67452 2.80579 9.67452 3.30145C9.67452 3.79706 9.27627 4.19976 8.78502 4.19976Z" fill="white"/>
<path id="Vector_6" d="M14.7613 21.5661C14.2701 21.5661 13.8718 21.1634 13.8718 20.6678C13.8763 20.1677 14.2701 19.765 14.7613 19.765C15.2481 19.765 15.6508 20.1721 15.6508 20.6678C15.6508 21.1634 15.2526 21.5661 14.7613 21.5661Z" fill="white"/>
</g>
</g>
</g>
</g>
<defs>
<clipPath id="clip0_58_136">
<rect width="24" height="24" fill="white"/>
</clipPath>
</defs>
</svg>
