<svg width="24" height="24" viewBox="0 0 24 24" fill="none" xmlns="http://www.w3.org/2000/svg">
<g clip-path="url(#clip0_53_38)">
<path d="M16.6328 16.5037C17.5035 16.4295 18.1755 15.6637 18.1328 14.7495C18.0855 13.8352 17.3355 13.1017 16.4258 13.1017H16.3628C15.4215 13.1325 14.6835 13.926 14.715 14.871C14.7458 15.3517 14.9408 15.738 15.2108 16.023C14.16 18.0622 12.5895 19.5592 10.203 20.82C8.60176 21.6562 6.90976 21.9727 5.26201 21.7462C3.88276 21.555 2.80501 20.9385 2.14501 19.9492C1.15576 18.4492 1.06576 16.836 1.89076 15.2152C2.49151 14.0475 3.39076 13.191 3.98776 12.7732C3.84001 12.3832 3.66001 11.727 3.57001 11.2305C-0.866992 14.4067 -0.413993 18.7545 0.933757 20.8057C1.93801 22.3057 3.98776 23.2627 6.23401 23.2627C6.83626 23.2627 7.46476 23.22 8.07826 23.067C11.9775 22.317 14.9265 19.9807 16.617 16.536L16.6328 16.5037ZM21.9803 12.7582C19.6605 10.0312 16.242 8.53122 12.348 8.53122H11.8358C11.586 7.97997 10.9995 7.63347 10.3395 7.63347H10.2968C9.35176 7.63347 8.61676 8.44572 8.64751 9.38772C8.67976 10.2855 9.44026 11.0355 10.3545 11.0355H10.4295C11.1045 11.0047 11.6873 10.5862 11.9295 9.98472H12.4838C14.793 9.98472 16.977 10.6605 18.9728 11.9775C20.496 12.9802 21.594 14.3017 22.2068 15.8752C22.746 17.16 22.7145 18.4222 22.1595 19.473C21.3083 21.117 19.8668 21.9877 17.9685 21.9877C16.7693 21.9877 15.6015 21.6127 14.9993 21.3435C14.64 21.6405 14.0385 22.1362 13.6043 22.4377C14.925 23.0347 16.257 23.379 17.5463 23.379C20.4683 23.379 22.6403 21.7342 23.4645 20.145C24.3623 18.348 24.2888 15.3202 21.9953 12.7267L21.9803 12.7582ZM6.48826 17.043C6.52051 17.9407 7.28101 18.6907 8.19901 18.6907H8.25826C9.21901 18.66 9.94951 17.8665 9.90601 16.9215C9.90601 16.0222 9.12901 15.2722 8.21476 15.2722H8.15176C8.09401 15.2722 8.00401 15.2722 7.92601 15.3045C6.68401 13.2067 6.15976 10.9567 6.35476 8.53047C6.47251 6.70272 7.07401 5.11647 8.15176 3.79647C9.05101 2.67522 10.7415 2.11647 11.898 2.08947C15.1328 2.02647 16.4843 6.06147 16.5863 7.66347L18.0863 8.11272C17.7383 3.19872 14.6843 0.620972 11.7623 0.620972C9.02026 0.620972 6.48826 2.61297 5.46901 5.53497C4.07776 9.43422 4.99201 13.176 6.69901 16.176C6.55126 16.3672 6.46126 16.7152 6.48826 17.043Z" fill="#764ABC"/>
</g>
<defs>
<clipPath id="clip0_53_38">
<rect width="24" height="24" fill="white"/>
</clipPath>
</defs>
</svg>
