<svg width="25" height="24" viewBox="0 0 25 24" fill="none" xmlns="http://www.w3.org/2000/svg">
<g id="docker" clip-path="url(#clip0_56_44)">
<g id="Group">
<path id="Vector" d="M9.167 19.273L10.173 17.531C11.0267 17.8904 11.9519 18.0472 12.8763 17.9893C13.8007 17.9314 14.6991 17.6603 15.5013 17.1972C16.3034 16.7342 16.9875 16.0917 17.4999 15.3202C18.0123 14.5487 18.3392 13.669 18.455 12.75H20.467C20.3593 13.8957 20.0049 15.0044 19.428 16C19.0366 16.6796 18.5473 17.2978 17.976 17.835C17.6487 17.7352 17.3043 17.7039 16.9644 17.7429C16.6244 17.782 16.2962 17.8906 16 18.062C15.7038 18.2327 15.4458 18.4624 15.2421 18.737C15.0384 19.0115 14.8934 19.3251 14.816 19.658C12.9489 20.2249 10.9399 20.0879 9.167 19.273ZM7.867 18.523C6.27589 17.3948 5.15316 15.7228 4.711 13.823C5.196 13.367 5.5 12.72 5.5 12C5.5 11.28 5.196 10.631 4.709 10.175C4.88851 9.41166 5.17929 8.67882 5.572 8.00004C6.14587 7.00293 6.9288 6.14187 7.867 5.47604L8.873 7.21804C8.13501 7.77772 7.53659 8.50062 7.12459 9.33016C6.71258 10.1597 6.49819 11.0733 6.49819 11.9995C6.49819 12.9258 6.71258 13.8394 7.12459 14.6689C7.53659 15.4985 8.13501 16.2214 8.873 16.781L7.867 18.523ZM9.167 4.72704C10.9397 3.91458 12.948 3.77698 14.815 4.34004C14.967 4.99004 15.377 5.57804 16 5.93804C16.623 6.29804 17.337 6.35804 17.976 6.16504C19.3976 7.50023 20.283 9.30836 20.466 11.25H18.453C18.338 10.3311 18.0114 9.45139 17.4991 8.67996C16.9867 7.90853 16.3024 7.26641 15.5 6.80404C14.6984 6.34019 13.8002 6.06854 12.8759 6.01041C11.9516 5.95228 11.0264 6.10927 10.173 6.46904L9.167 4.72704ZM16.5 5.07204C16.328 4.97427 16.1771 4.84344 16.0559 4.6871C15.9347 4.53076 15.8456 4.35199 15.7938 4.16108C15.742 3.97017 15.7284 3.77089 15.7539 3.57472C15.7794 3.37855 15.8434 3.18937 15.9424 3.01805C16.0413 2.84673 16.1731 2.69667 16.3302 2.57651C16.4874 2.45635 16.6667 2.36846 16.858 2.31789C17.0492 2.26733 17.2486 2.2551 17.4446 2.28189C17.6406 2.30869 17.8293 2.374 18 2.47404C18.3417 2.67437 18.5903 3.00172 18.6916 3.38466C18.7928 3.76761 18.7385 4.17505 18.5404 4.51808C18.3424 4.86111 18.0167 5.11188 17.6344 5.21566C17.2521 5.31945 16.8443 5.26782 16.5 5.07204ZM4.5 12C4.5 12.3979 4.34196 12.7794 4.06066 13.0607C3.77936 13.342 3.39782 13.5 3 13.5C2.60218 13.5 2.22064 13.342 1.93934 13.0607C1.65804 12.7794 1.5 12.3979 1.5 12C1.5 11.6022 1.65804 11.2207 1.93934 10.9394C2.22064 10.6581 2.60218 10.5 3 10.5C3.39782 10.5 3.77936 10.6581 4.06066 10.9394C4.34196 11.2207 4.5 11.6022 4.5 12ZM16.5 18.928C16.6707 18.828 16.8594 18.7627 17.0554 18.7359C17.2514 18.7091 17.4508 18.7213 17.642 18.7719C17.8333 18.8225 18.0126 18.9103 18.1698 19.0305C18.3269 19.1507 18.4587 19.3007 18.5576 19.472C18.6566 19.6434 18.7206 19.8326 18.7461 20.0287C18.7716 20.2249 18.758 20.4242 18.7062 20.6151C18.6544 20.806 18.5653 20.9848 18.4441 21.1411C18.3229 21.2974 18.172 21.4283 18 21.526C17.6557 21.7218 17.2479 21.7734 16.8656 21.6697C16.4833 21.5659 16.1576 21.3151 15.9596 20.9721C15.7615 20.6291 15.7072 20.2216 15.8084 19.8387C15.9097 19.4557 16.1583 19.1284 16.5 18.928Z" fill="#E95420"/>
</g>
</g>
<defs>
<clipPath id="clip0_56_44">
<rect width="24" height="24" fill="white" transform="translate(0.5)"/>
</clipPath>
</defs>
</svg>
