<svg width="35" height="35" viewBox="0 0 35 35" fill="none" xmlns="http://www.w3.org/2000/svg">
<g id="Frame">
<path id="Vector" d="M17.5 24.0625C16.37 24.0625 15.24 23.6919 14.2762 22.9407L0 11.8398V27.3438C0 29.1553 1.46904 30.625 3.28125 30.625H31.7188C33.531 30.625 35 29.156 35 27.3438V11.8398L20.7266 22.9482C19.7627 23.6934 18.6279 24.0625 17.5 24.0625ZM1.11357 9.93262L15.6194 21.2188C16.7262 22.0801 18.2766 22.0801 19.3833 21.2188L33.8892 9.93262C34.5283 9.38574 35 8.54492 35 7.65625C35 5.84404 33.5303 4.375 31.7188 4.375H3.28125C1.46904 4.375 0 5.84404 0 7.65625C0 8.54492 0.41084 9.38574 1.11357 9.93262Z" fill="black"/>
</g>
</svg>
