<svg width="35" height="35" viewBox="0 0 35 35" fill="none" xmlns="http://www.w3.org/2000/svg">
<g id="Frame" clip-path="url(#clip0_66_402)">
<path id="Vector" d="M34.9453 26.455L33.356 33.3456C33.1327 34.3197 32.2766 35.0013 31.2737 35.0013C14.0273 34.9999 0 20.9726 0 3.7255C0 2.72335 0.681475 1.86612 1.65566 1.64396L8.54629 0.0546016C9.5498 -0.177957 10.5752 0.342941 10.9922 1.29327L14.1723 8.71027C14.544 9.5839 14.2933 10.6018 13.5584 11.202L9.87793 14.1571C12.2008 18.889 16.048 22.7362 20.7812 25.0605L23.7945 21.3827C24.3884 20.6458 25.414 20.3908 26.2876 20.7692L33.7046 23.9486C34.5967 24.4179 35.1777 25.4569 34.9453 26.455Z" fill="black"/>
</g>
<defs>
<clipPath id="clip0_66_402">
<rect width="35" height="35" fill="white"/>
</clipPath>
</defs>
</svg>
